<svg width="current" height="current" viewBox="0 0 40 40" fill="none" xmlns="http://www.w3.org/2000/svg">
<path d="M20.0003 6.66675C21.7684 6.66675 23.4641 7.36913 24.7144 8.61937C25.9646 9.86961 26.667 11.5653 26.667 13.3334C26.667 15.1015 25.9646 16.7972 24.7144 18.0475C23.4641 19.2977 21.7684 20.0001 20.0003 20.0001C18.2322 20.0001 16.5365 19.2977 15.2863 18.0475C14.036 16.7972 13.3337 15.1015 13.3337 13.3334C13.3337 11.5653 14.036 9.86961 15.2863 8.61937C16.5365 7.36913 18.2322 6.66675 20.0003 6.66675ZM20.0003 23.3334C27.367 23.3334 33.3337 26.3167 33.3337 30.0001V33.3334H6.66699V30.0001C6.66699 26.3167 12.6337 23.3334 20.0003 23.3334Z" fill="currentColor"/>
</svg>
