<svg width="15" height="16" viewBox="0 0 15 16" fill="none" xmlns="http://www.w3.org/2000/svg">
<path fill-rule="evenodd" clip-rule="evenodd" d="M9.65325 2.71773C9.00957 3.37911 8.26117 3.7098 7.40804 3.7098C7.3825 3.51215 7.36973 3.37024 7.36973 3.28409C7.36973 2.53908 7.66858 1.8397 8.26628 1.18592C8.86398 0.532143 9.55619 0.149507 10.3429 0.0380102C10.3991 0.0278742 10.4834 0.0152041 10.5958 0C10.6111 0.177381 10.6188 0.314218 10.6188 0.410511C10.6188 1.28728 10.2969 2.05635 9.65325 2.71773ZM12.4808 14.0941C11.7452 14.9202 11.0734 15.3332 10.4655 15.3332C10.1794 15.3332 9.78863 15.2395 9.2931 15.052L9.05555 14.9607C8.57024 14.7732 8.14112 14.6795 7.76819 14.6795C7.4157 14.6795 7.03001 14.7529 6.61111 14.8999L6.31225 15.0063L5.93678 15.1584C5.64048 15.2749 5.34163 15.3332 5.04022 15.3332C4.33014 15.3332 3.54597 14.7529 2.68773 13.5924C1.45146 11.93 0.833328 10.1182 0.833328 8.1569C0.833328 6.76319 1.21902 5.64062 1.99042 4.78919C2.76181 3.93776 3.78352 3.51204 5.05555 3.51204C5.53065 3.51204 5.97509 3.5982 6.38888 3.77051L6.67241 3.88454L6.97126 4.00618C7.2369 4.11767 7.45146 4.17342 7.61494 4.17342C7.82439 4.17342 8.05683 4.12528 8.31225 4.02898L8.70306 3.87694L8.99425 3.77051C9.45913 3.60327 9.97254 3.51965 10.5345 3.51965C11.8678 3.51965 12.9406 4.02392 13.7529 5.03245C12.583 5.85348 11.9981 6.84174 11.9981 7.99725C11.9981 9.38083 12.7209 10.4426 14.1667 11.1825C13.7784 12.2975 13.2165 13.268 12.4808 14.0941Z" fill="white"/>
</svg>
