<svg width="17" height="16" viewBox="0 0 17 16" fill="none" xmlns="http://www.w3.org/2000/svg">
<path fill-rule="evenodd" clip-rule="evenodd" d="M10.6533 2.71773C10.0096 3.37911 9.26122 3.7098 8.40809 3.7098C8.38254 3.51215 8.36977 3.37024 8.36977 3.28409C8.36977 2.53908 8.66862 1.8397 9.26632 1.18592C9.86403 0.532143 10.5562 0.149507 11.343 0.0380102C11.3991 0.0278742 11.4834 0.0152041 11.5958 0C11.6112 0.177381 11.6188 0.314218 11.6188 0.410511C11.6188 1.28728 11.297 2.05635 10.6533 2.71773ZM13.4809 14.0941C12.7453 14.9202 12.0735 15.3332 11.4656 15.3332C11.1795 15.3332 10.7887 15.2395 10.2931 15.052L10.0556 14.9607C9.57028 14.7732 9.14116 14.6795 8.76824 14.6795C8.41575 14.6795 8.03005 14.7529 7.61115 14.8999L7.3123 15.0063L6.93682 15.1584C6.64053 15.2749 6.34168 15.3332 6.04027 15.3332C5.33018 15.3332 4.54602 14.7529 3.68778 13.5924C2.45151 11.93 1.83337 10.1182 1.83337 8.1569C1.83337 6.76319 2.21907 5.64062 2.99046 4.78919C3.76185 3.93776 4.78357 3.51204 6.0556 3.51204C6.53069 3.51204 6.97514 3.5982 7.38893 3.77051L7.67245 3.88454L7.9713 4.00618C8.23695 4.11767 8.45151 4.17342 8.61498 4.17342C8.82443 4.17342 9.05687 4.12528 9.3123 4.02898L9.70311 3.87694L9.99429 3.77051C10.4592 3.60327 10.9726 3.51965 11.5345 3.51965C12.8679 3.51965 13.9407 4.02392 14.7529 5.03245C13.5831 5.85348 12.9981 6.84174 12.9981 7.99725C12.9981 9.38083 13.721 10.4426 15.1667 11.1825C14.7785 12.2975 14.2165 13.268 13.4809 14.0941Z" fill="white"/>
</svg>
