<svg width="24" height="24" viewBox="0 0 24 24" fill="none" xmlns="http://www.w3.org/2000/svg">
<path d="M12.7071 7.79292L7.5 2.58582L2.29289 7.79292C1.90237 8.18345 1.90237 8.81661 2.29289 9.20714C2.68342 9.59766 3.31658 9.59766 3.70711 9.20714L6.5 6.41425L6.49999 20C6.49999 20.5523 6.94771 21 7.49999 21C8.05228 21 8.49999 20.5523 8.49999 20L8.5 6.41425L11.2929 9.20714C11.6834 9.59766 12.3166 9.59766 12.7071 9.20714C13.0976 8.81661 13.0976 8.18345 12.7071 7.79292Z" fill="#212529"/>
<path d="M17.5 4C17.5 3.44772 17.0523 3 16.5 3C15.9477 3 15.5 3.44772 15.5 4L15.5 17.5858L12.7071 14.7929C12.3166 14.4024 11.6834 14.4024 11.2929 14.7929C10.9024 15.1834 10.9024 15.8166 11.2929 16.2071L16.5 21.4142L21.7071 16.2071C22.0976 15.8166 22.0976 15.1834 21.7071 14.7929C21.3166 14.4024 20.6834 14.4024 20.2929 14.7929L17.5 17.5858L17.5 4Z" fill="#212529"/>
</svg>
