<svg width="24" height="24" viewBox="0 0 24 24" fill="none" xmlns="http://www.w3.org/2000/svg">
<path fill-rule="evenodd" clip-rule="evenodd" d="M4 16V9.86111C4 5.50074 7.60071 2 12 2C16.3993 2 20 5.50074 20 9.86111V16H21C21.5523 16 22 16.4477 22 17C22 17.5523 21.5523 18 21 18H16C16 20.2091 14.2091 22 12 22C9.79086 22 8 20.2091 8 18H3C2.44772 18 2 17.5523 2 17C2 16.4477 2.44772 16 3 16H4ZM6 9.86111C6 6.64291 8.6673 4 12 4C15.3327 4 18 6.64291 18 9.86111V16H6V9.86111ZM10 18C10 19.1046 10.8954 20 12 20C13.1046 20 14 19.1046 14 18H10Z" fill="#212529"/>
</svg>
