<svg width="24" height="24" viewBox="0 0 24 24" fill="none" xmlns="http://www.w3.org/2000/svg">
<path fill-rule="evenodd" clip-rule="evenodd" d="M12 23C18.0751 23 23 18.0751 23 12C23 5.92487 18.0751 1 12 1C5.92487 1 1 5.92487 1 12C1 18.0751 5.92487 23 12 23ZM17.2295 9.68394C17.6073 9.28103 17.5868 8.6482 17.1839 8.27047C16.781 7.89274 16.1482 7.91315 15.7705 8.31606L10.8115 13.6056L8.16436 11.2526C7.75158 10.8857 7.1195 10.9229 6.75259 11.3356C6.38567 11.7484 6.42285 12.3805 6.83563 12.7474L10.9385 16.3944L17.2295 9.68394Z" fill="#212529"/>
</svg>
