<svg width="24" height="24" viewBox="0 0 24 24" fill="none" xmlns="http://www.w3.org/2000/svg">
<path d="M17.2295 9.68394C17.6073 9.28103 17.5869 8.64819 17.1839 8.27046C16.781 7.89273 16.1482 7.91315 15.7705 8.31606L10.8115 13.6056L8.16436 11.2526C7.75158 10.8857 7.11951 10.9229 6.75259 11.3356C6.38567 11.7484 6.42285 12.3805 6.83564 12.7474L10.9385 16.3944L17.2295 9.68394Z" fill="#212529"/>
<path fill-rule="evenodd" clip-rule="evenodd" d="M23 12C23 18.0751 18.0751 23 12 23C5.92487 23 1 18.0751 1 12C1 5.92487 5.92487 1 12 1C18.0751 1 23 5.92487 23 12ZM21 12C21 16.9706 16.9706 21 12 21C7.02944 21 3 16.9706 3 12C3 7.02944 7.02944 3 12 3C16.9706 3 21 7.02944 21 12Z" fill="#212529"/>
</svg>
