<svg width="24" height="24" viewBox="0 0 24 24" fill="none" xmlns="http://www.w3.org/2000/svg">
<path d="M23 12C23 18.0751 18.0751 23 12 23C5.92487 23 1 18.0751 1 12C1 5.92487 5.92487 1 12 1C18.0751 1 23 5.92487 23 12Z" fill="#363644"/>
<path fill-rule="evenodd" clip-rule="evenodd" d="M15.744 8.25595C15.0616 7.57357 13.8943 7.56683 13.136 8.32517L11.4747 9.98645C10.7164 10.7448 10.7231 11.9121 11.4055 12.5945L10.3448 13.6551C9.0393 12.3496 9.10802 10.2318 10.4141 8.92579L12.0753 7.26451C13.3814 5.95847 15.4991 5.88975 16.8047 7.19529C18.1102 8.50083 18.0415 10.6186 16.7354 11.9246L15.6748 10.864C16.4331 10.1056 16.4264 8.93833 15.744 8.25595L16.271 7.72892L15.744 8.25595ZM12.5253 14.0135C13.2836 13.2551 13.2769 12.0878 12.5945 11.4055L13.6551 10.3448C14.9607 11.6503 14.892 13.7681 13.5859 15.0741L11.9246 16.7354C10.6186 18.0415 8.50086 18.1102 7.19532 16.8046L7.72565 16.2743L7.19532 16.8046C5.88978 15.4991 5.9585 13.3813 7.26454 12.0753L8.3252 13.136C7.56687 13.8943 7.5736 15.0616 8.25598 15.744L7.72895 16.271L8.25598 15.744C8.93836 16.4264 10.1056 16.4331 10.864 15.6748L12.5253 14.0135Z" fill="white"/>
</svg>
