<svg width="current" height="current" viewBox="0 0 24 24" fill="none" xmlns="http://www.w3.org/2000/svg">
<path d="M5 7C5 5.34315 6.34315 4 8 4H15C15.5523 4 16 3.55228 16 3C16 2.44772 15.5523 2 15 2H8C5.23858 2 3 4.23858 3 7V16C3 16.5523 3.44772 17 4 17C4.55228 17 5 16.5523 5 16V7Z" fill="currentColor"/>
<path fill-rule="evenodd" clip-rule="evenodd" d="M6 8C6 6.34315 7.34315 5 9 5H17C18.6569 5 20 6.34315 20 8V19C20 20.6569 18.6569 22 17 22H9C7.34315 22 6 20.6569 6 19V8ZM9 7H17C17.5523 7 18 7.44772 18 8V19C18 19.5523 17.5523 20 17 20H9C8.44772 20 8 19.5523 8 19V8C8 7.44772 8.44771 7 9 7Z" fill="currentColor"/>
</svg>
