<svg width="current" height="current" viewBox="0 0 24 24" fill="none" xmlns="http://www.w3.org/2000/svg">
<path d="M7.29289 11.7071C6.90237 11.3166 6.90237 10.6834 7.29289 10.2929C7.68342 9.90237 8.31658 9.90237 8.70711 10.2929L11 12.5858L11 3C11 2.44771 11.4477 2 12 2C12.5523 2 13 2.44771 13 3L13 12.5858L15.2929 10.2929C15.6834 9.90237 16.3166 9.90237 16.7071 10.2929C17.0976 10.6834 17.0976 11.3166 16.7071 11.7071L12 16.4142L7.29289 11.7071Z" fill="currentColor"/>
<path d="M4 16C4 15.4477 3.55228 15 3 15C2.44772 15 2 15.4477 2 16V18C2 19.6569 3.34315 21 5 21H19C20.6569 21 22 19.6569 22 18V16C22 15.4477 21.5523 15 21 15C20.4477 15 20 15.4477 20 16V18C20 18.5523 19.5523 19 19 19H5C4.44772 19 4 18.5523 4 18V16Z" fill="currentColor"/>
</svg>
