<svg width="24" height="24" viewBox="0 0 24 24" fill="none" xmlns="http://www.w3.org/2000/svg">
<path fill-rule="evenodd" clip-rule="evenodd" d="M19.9142 1.99997C19.1332 1.21892 17.8668 1.21892 17.0858 1.99997L7.78167 11.3041C7.39841 11.6873 7.18712 12.2097 7.19616 12.7517L7.23096 14.8382C7.24895 15.9166 8.11887 16.7866 9.19733 16.8045L11.2838 16.8393C11.8258 16.8484 12.3482 16.6371 12.7314 16.2538L22.0355 6.94972C22.8166 6.16867 22.8166 4.90234 22.0355 4.12129L19.9142 1.99997ZM18.5 3.41418L20.6213 5.5355L11.3172 14.8396L9.23068 14.8048L9.19588 12.7183L18.5 3.41418Z" fill="#212529"/>
<path d="M4 4.99997C4 4.44769 4.44772 3.99997 5 3.99997H11C11.5523 3.99997 12 3.55226 12 2.99997C12 2.44769 11.5523 1.99997 11 1.99997H5C3.34315 1.99997 2 3.34312 2 4.99997V19C2 20.6568 3.34315 22 5 22H19C20.6569 22 22 20.6568 22 19V13C22 12.4477 21.5523 12 21 12C20.4477 12 20 12.4477 20 13V19C20 19.5523 19.5523 20 19 20H5C4.44772 20 4 19.5523 4 19V4.99997Z" fill="#212529"/>
</svg>
