<svg width="14" height="14" viewBox="0 0 14 14" fill="none" xmlns="http://www.w3.org/2000/svg">
<path fill-rule="evenodd" clip-rule="evenodd" d="M7.00005 4.66659C5.71139 4.66659 4.66672 5.71125 4.66672 6.99992C4.66672 8.28858 5.71139 9.33325 7.00005 9.33325C8.28871 9.33325 9.33338 8.28858 9.33338 6.99992C9.33338 5.71125 8.28871 4.66659 7.00005 4.66659ZM5.83338 6.99992C5.83338 6.35559 6.35572 5.83325 7.00005 5.83325C7.64438 5.83325 8.16672 6.35559 8.16672 6.99992C8.16672 7.64425 7.64438 8.16659 7.00005 8.16659C6.35572 8.16659 5.83338 7.64425 5.83338 6.99992Z" fill="white"/>
<path fill-rule="evenodd" clip-rule="evenodd" d="M7.00006 2.33325C4.00692 2.33325 2.00305 4.69337 1.16756 5.89657C0.703587 6.56474 0.703587 7.43509 1.16756 8.10327C2.00305 9.30647 4.00692 11.6666 7.00006 11.6666C9.99321 11.6666 11.9971 9.30647 12.8326 8.10327C13.2965 7.43509 13.2965 6.56474 12.8326 5.89657C11.9971 4.69337 9.99321 2.33325 7.00006 2.33325ZM2.12585 6.562C2.93378 5.39847 4.63195 3.49992 7.00006 3.49992C9.36818 3.49992 11.0663 5.39847 11.8743 6.562C12.0604 6.83005 12.0604 7.16978 11.8743 7.43784C11.0663 8.60137 9.36818 10.4999 7.00006 10.4999C4.63195 10.4999 2.93378 8.60137 2.12585 7.43784C1.93971 7.16978 1.93971 6.83005 2.12585 6.562Z" fill="white"/>
</svg>
