<svg width="current" height="current" viewBox="0 0 16 16" fill="currentColor" xmlns="http://www.w3.org/2000/svg">
<path d="M7.99984 1.3335C8.87532 1.3335 9.74222 1.50593 10.5511 1.84097C11.3599 2.176 12.0948 2.66706 12.7139 3.28612C13.9641 4.53636 14.6665 6.23205 14.6665 8.00016C14.6665 9.76827 13.9641 11.464 12.7139 12.7142C12.0948 13.3333 11.3599 13.8243 10.5511 14.1594C9.74222 14.4944 8.87532 14.6668 7.99984 14.6668C6.23173 14.6668 4.53604 13.9644 3.28579 12.7142C2.03555 11.464 1.33317 9.76827 1.33317 8.00016C1.33317 7.12468 1.50561 6.25778 1.84064 5.44894C2.17567 4.6401 2.66674 3.90517 3.28579 3.28612C3.90485 2.66706 4.63978 2.176 5.44862 1.84097C6.25745 1.50593 7.12436 1.3335 7.99984 1.3335ZM7.99984 5.5935C6.95317 6.26683 5.71984 6.66683 4.3865 6.66683C3.8665 6.66683 3.3665 6.60683 2.8865 6.4935C2.7465 6.96683 2.6665 7.4735 2.6665 8.00016C2.6665 10.9402 5.05984 13.3335 7.99984 13.3335C9.99984 13.3335 11.7398 12.2268 12.6665 10.5935L11.4998 9.3335V8.66683C11.4998 8.44582 11.412 8.23385 11.2558 8.07757C11.0995 7.92129 10.8875 7.8335 10.6665 7.8335C10.4455 7.8335 10.2335 7.92129 10.0772 8.07757C9.92097 8.23385 9.83317 8.44582 9.83317 8.66683V9.3335H7.99984M5.33317 7.8335C5.55418 7.8335 5.76615 7.92129 5.92243 8.07757C6.07871 8.23385 6.1665 8.44582 6.1665 8.66683C6.1665 8.88784 6.07871 9.0998 5.92243 9.25608C5.76615 9.41236 5.55418 9.50016 5.33317 9.50016C5.11216 9.50016 4.9002 9.41236 4.74391 9.25608C4.58764 9.0998 4.49984 8.88784 4.49984 8.66683C4.49984 8.44582 4.58764 8.23385 4.74391 8.07757C4.9002 7.92129 5.11216 7.8335 5.33317 7.8335Z" fill="currentColor"/>
</svg>
