<svg width="current" height="current" viewBox="0 0 16 16" fill="currentColor" xmlns="http://www.w3.org/2000/svg">
<g clip-path="url(#clip0_2892_10972)">
<path d="M6 7.83333C5.77899 7.83333 5.56702 7.92113 5.41074 8.07741C5.25446 8.23369 5.16667 8.44565 5.16667 8.66667C5.16667 8.88768 5.25446 9.09964 5.41074 9.25592C5.56702 9.4122 5.77899 9.5 6 9.5C6.10944 9.5 6.2178 9.47845 6.3189 9.43657C6.42001 9.39469 6.51187 9.3333 6.58926 9.25592C6.66664 9.17854 6.72802 9.08667 6.7699 8.98557C6.81178 8.88447 6.83333 8.7761 6.83333 8.66667C6.83333 8.55723 6.81178 8.44887 6.7699 8.34776C6.72802 8.24666 6.66664 8.15479 6.58926 8.07741C6.51187 8.00003 6.42001 7.93865 6.3189 7.89677C6.2178 7.85489 6.10944 7.83333 6 7.83333ZM10 7.83333C9.77899 7.83333 9.56703 7.92113 9.41074 8.07741C9.25446 8.23369 9.16667 8.44565 9.16667 8.66667C9.16667 8.88768 9.25446 9.09964 9.41074 9.25592C9.56703 9.4122 9.77899 9.5 10 9.5C10.221 9.5 10.433 9.4122 10.5893 9.25592C10.7455 9.09964 10.8333 8.88768 10.8333 8.66667C10.8333 8.44565 10.7455 8.23369 10.5893 8.07741C10.433 7.92113 10.221 7.83333 10 7.83333ZM8 1.33333C7.12452 1.33333 6.25761 1.50577 5.44878 1.8408C4.63994 2.17583 3.90501 2.6669 3.28595 3.28595C2.03571 4.5362 1.33333 6.23189 1.33333 8C1.33333 9.76811 2.03571 11.4638 3.28595 12.714C3.90501 13.3331 4.63994 13.8242 5.44878 14.1592C6.25761 14.4942 7.12452 14.6667 8 14.6667C9.76811 14.6667 11.4638 13.9643 12.714 12.714C13.9643 11.4638 14.6667 9.76811 14.6667 8C14.6667 7.12452 14.4942 6.25761 14.1592 5.44878C13.8242 4.63994 13.3331 3.90501 12.714 3.28595C12.095 2.6669 11.3601 2.17583 10.5512 1.8408C9.74239 1.50577 8.87548 1.33333 8 1.33333ZM8 13.3333C6.58551 13.3333 5.22896 12.7714 4.22876 11.7712C3.22857 10.771 2.66667 9.41449 2.66667 8C2.64667 7.80667 2.64667 7.62 2.66667 7.42667C4.25333 6.73333 5.51333 5.44667 6.17333 3.84667C7.42 5.61333 9.44667 6.66667 11.6133 6.66667C12.12 6.66667 12.62 6.60667 13.1133 6.49333C13.9467 9.33333 12.3333 12.2867 9.50667 13.1133C9 13.26 8.50667 13.3333 8 13.3333ZM0 1.33333C0 0.979711 0.140476 0.640573 0.390524 0.390524C0.640573 0.140476 0.979711 0 1.33333 0L4 0V1.33333H1.33333V4H0V1.33333ZM16 14.6667C16 15.0203 15.8595 15.3594 15.6095 15.6095C15.3594 15.8595 15.0203 16 14.6667 16H12V14.6667H14.6667V12H16V14.6667ZM1.33333 16C0.979711 16 0.640573 15.8595 0.390524 15.6095C0.140476 15.3594 0 15.0203 0 14.6667V12H1.33333V14.6667H4V16H1.33333ZM14.6667 0C15.0203 0 15.3594 0.140476 15.6095 0.390524C15.8595 0.640573 16 0.979711 16 1.33333V4H14.6667V1.33333H12V0H14.6667Z" fill="currentColor"/>
</g>
<defs>
<clipPath id="clip0_2892_10972">
<rect width="16" height="16" fill="currentColor"/>
</clipPath>
</defs>
</svg>
