<svg width="current" height="current" viewBox="0 0 24 24" fill="none" xmlns="http://www.w3.org/2000/svg">
<path fill-rule="evenodd" clip-rule="evenodd" d="M10.8293 9C10.4175 10.1652 9.30622 11 8 11C6.69378 11 5.58254 10.1652 5.17071 9L2 9C1.44772 9 1 8.55228 1 8C1 7.44772 1.44772 7 2 7L5.17071 7C5.58254 5.83481 6.69378 5 8 5C9.30622 5 10.4175 5.83481 10.8293 7L22 7C22.5523 7 23 7.44772 23 8C23 8.55229 22.5523 9 22 9L10.8293 9ZM9 8C9 8.55228 8.55228 9 8 9C7.44772 9 7 8.55228 7 8C7 7.44772 7.44772 7 8 7C8.55228 7 9 7.44772 9 8Z" fill="currentColor"/>
<path fill-rule="evenodd" clip-rule="evenodd" d="M16 13C17.3062 13 18.4175 13.8348 18.8293 15H22C22.5523 15 23 15.4477 23 16C23 16.5523 22.5523 17 22 17H18.8293C18.4175 18.1652 17.3062 19 16 19C14.6938 19 13.5825 18.1652 13.1707 17L2 17C1.44772 17 1 16.5523 1 16C1 15.4477 1.44772 15 2 15L13.1707 15C13.5825 13.8348 14.6938 13 16 13ZM16 17C16.5523 17 17 16.5523 17 16C17 15.4477 16.5523 15 16 15C15.4477 15 15 15.4477 15 16C15 16.5523 15.4477 17 16 17Z" fill="currentColor"/>
</svg>
