<svg width="17" height="16" viewBox="0 0 17 16" fill="none" xmlns="http://www.w3.org/2000/svg">
<path d="M15.54 8.16675C15.54 7.64675 15.4933 7.14675 15.4067 6.66675H8.5V9.50675H12.4467C12.2733 10.4201 11.7533 11.1934 10.9733 11.7134V13.5601H13.3533C14.74 12.2801 15.54 10.4001 15.54 8.16675Z" fill="#4285F4"/>
<path d="M8.50001 15.3332C10.48 15.3332 12.14 14.6799 13.3533 13.5599L10.9733 11.7132C10.32 12.1532 9.48667 12.4199 8.50001 12.4199C6.59334 12.4199 4.97334 11.1332 4.39334 9.3999H1.95334V11.2932C3.16001 13.6866 5.63334 15.3332 8.50001 15.3332Z" fill="#34A853"/>
<path d="M4.39334 9.39338C4.24667 8.95338 4.16 8.48671 4.16 8.00005C4.16 7.51338 4.24667 7.04671 4.39334 6.60671V4.71338H1.95334C1.45334 5.70005 1.16667 6.81338 1.16667 8.00005C1.16667 9.18671 1.45334 10.3 1.95334 11.2867L3.85334 9.80671L4.39334 9.39338Z" fill="#FBBC05"/>
<path d="M8.50001 3.58675C9.58001 3.58675 10.54 3.96008 11.3067 4.68008L13.4067 2.58008C12.1333 1.39341 10.48 0.666748 8.50001 0.666748C5.63334 0.666748 3.16001 2.31341 1.95334 4.71342L4.39334 6.60675C4.97334 4.87341 6.59334 3.58675 8.50001 3.58675Z" fill="#EA4335"/>
</svg>
