<svg width="current" height="current" viewBox="0 0 24 24" fill="none" xmlns="http://www.w3.org/2000/svg">
<path fill-rule="evenodd" clip-rule="evenodd" d="M21.2432 12.4377C20.5505 13.9439 19.3014 15.447 18.022 16.7424C16.7225 18.0583 15.3246 19.226 14.2765 20.0484C12.9325 21.1029 11.0675 21.1029 9.72354 20.0484C8.67537 19.226 7.27754 18.0583 5.97795 16.7424C4.69855 15.447 3.44951 13.9439 2.75685 12.4377L2.75795 12.4399L2.76655 12.4567L2.76949 12.4623L2.7706 12.4645L2.75795 12.4399L2.747 12.4162L2.75685 12.4377C2.75008 12.4244 2.74125 12.4068 2.73065 12.3851C2.70829 12.3395 2.67795 12.2759 2.64231 12.1968C2.57126 12.039 2.47788 11.8166 2.38458 11.5502C2.20244 11.0302 2 10.2847 2 9.5007C2 6.20412 4.62824 3.5 7.90909 3.5C9.5006 3.5 10.941 4.13885 12 5.17074C13.059 4.13885 14.4994 3.5 16.0909 3.5C19.3718 3.5 22 6.20412 22 9.5007C22 10.2847 21.7976 11.0302 21.6154 11.5502C21.5221 11.8166 21.4287 12.039 21.3577 12.1968C21.3221 12.2759 21.2917 12.3395 21.2694 12.3851C21.2588 12.4067 21.2499 12.4244 21.2432 12.4377ZM21.2305 12.4623L21.242 12.4399L21.2334 12.4567L21.2305 12.4623ZM21.2432 12.4377L21.242 12.4399L21.253 12.4162L21.2432 12.4377Z" fill="currentColor"/>
</svg>
