<svg width="current" height="current" viewBox="0 0 24 24" fill="none" xmlns="http://www.w3.org/2000/svg">
<path d="M7.90909 5.5C5.76751 5.5 4 7.27366 4 9.5007C4 9.96688 4.12593 10.4716 4.27217 10.8892C4.34306 11.0916 4.41386 11.2599 4.46596 11.3756C4.49189 11.4332 4.51285 11.477 4.52641 11.5047L4.54079 11.5335L4.54221 11.5363L4.54306 11.538C4.55127 11.5537 4.55913 11.5698 4.56649 11.5859C5.1101 12.7771 6.16773 14.0883 7.40094 15.337C8.62005 16.5714 9.94714 17.6817 10.9581 18.4749C11.5773 18.9607 12.4227 18.9607 13.0419 18.4749C14.0529 17.6817 15.3799 16.5714 16.5991 15.337C17.8323 14.0883 18.8899 12.7771 19.4335 11.5859C19.441 11.5695 19.4489 11.5533 19.4572 11.5374L19.4578 11.5363L21.242 12.4399L21.2287 12.4657L21.2294 12.4645L21.2305 12.4623L21.2334 12.4567L21.242 12.4399L21.2432 12.4377C20.5505 13.9439 19.3014 15.447 18.022 16.7424C16.7225 18.0583 15.3246 19.226 14.2765 20.0484C12.9325 21.1029 11.0675 21.1029 9.72354 20.0484C8.67537 19.226 7.27754 18.0583 5.97795 16.7424C4.69855 15.447 3.44951 13.9439 2.75685 12.4377L2.75795 12.4399L2.76655 12.4567L2.76949 12.4623L2.7706 12.4645L2.77106 12.4653L2.75795 12.4399L2.747 12.4162C2.75027 12.4234 2.75356 12.4306 2.75685 12.4377C2.75008 12.4244 2.74125 12.4068 2.73065 12.3851C2.70829 12.3395 2.67795 12.2759 2.64231 12.1968C2.57126 12.039 2.47788 11.8166 2.38458 11.5502C2.20244 11.0302 2 10.2847 2 9.5007C2 6.20412 4.62824 3.5 7.90909 3.5C9.5006 3.5 10.941 4.13885 12 5.17074C13.059 4.13885 14.4994 3.5 16.0909 3.5C19.3718 3.5 22 6.20412 22 9.5007C22 10.2847 21.7976 11.0302 21.6154 11.5502C21.5221 11.8166 21.4287 12.039 21.3577 12.1968C21.3221 12.2759 21.2917 12.3395 21.2694 12.3851C21.2588 12.4067 21.2499 12.4244 21.2432 12.4377C21.2464 12.4305 21.2497 12.4234 21.253 12.4162L21.242 12.4399L19.4578 11.5363L19.4592 11.5335L19.4736 11.5047C19.4872 11.477 19.5081 11.4332 19.534 11.3756C19.5861 11.2599 19.6569 11.0916 19.7278 10.8892C19.8741 10.4716 20 9.96688 20 9.5007C20 7.27366 18.2325 5.5 16.0909 5.5C14.7406 5.5 13.5431 6.2009 12.8374 7.28207C12.6528 7.56494 12.3378 7.73548 12 7.73548C11.6622 7.73548 11.3472 7.56494 11.1626 7.28207C10.4569 6.2009 9.25945 5.5 7.90909 5.5Z" fill="currentColor"/>
</svg>
