<svg width="14" height="14" viewBox="0 0 14 14" fill="none" xmlns="http://www.w3.org/2000/svg">
<path d="M4.6136 3.20841C3.36434 3.20841 2.33329 4.24305 2.33329 5.54216C2.33329 5.81409 2.40675 6.10851 2.49206 6.35209C2.53341 6.47016 2.57471 6.56836 2.6051 6.63585C2.62023 6.66944 2.63245 6.69499 2.64037 6.71113L2.64875 6.72797L2.64958 6.72961L2.65008 6.73056C2.65486 6.73972 2.65945 6.7491 2.66375 6.75851C2.98085 7.45337 3.5978 8.21828 4.31718 8.94667C5.02832 9.66673 5.80246 10.3144 6.3922 10.7771C6.75337 11.0605 7.24655 11.0605 7.60772 10.7771C8.19746 10.3144 8.9716 9.66673 9.68274 8.94667C10.4021 8.21828 11.0191 7.45337 11.3362 6.75851C11.3405 6.74896 11.3451 6.73953 11.35 6.73023L11.3503 6.72961L12.3912 7.25668L12.3834 7.27176L12.3838 7.27101L12.3844 7.26977L12.3861 7.26647L12.3912 7.25668L12.3918 7.25541C11.9877 8.13401 11.2591 9.01081 10.5128 9.76648C9.75473 10.5341 8.93932 11.2153 8.32789 11.695C7.54391 12.3101 6.45601 12.3101 5.67203 11.695C5.06059 11.2153 4.24519 10.5341 3.4871 9.76648C2.74078 9.01081 2.01218 8.13401 1.60812 7.25542L1.60877 7.25668L1.61378 7.26647L1.61549 7.26977L1.61614 7.27101L1.61641 7.27153L1.60877 7.25668L1.60238 7.24288C1.60429 7.24706 1.6062 7.25124 1.60812 7.25542C1.60417 7.24763 1.59902 7.23735 1.59284 7.22474C1.5798 7.19814 1.56209 7.16103 1.5413 7.11485C1.49986 7.02282 1.44539 6.89311 1.39096 6.73771C1.28472 6.43434 1.16663 5.99949 1.16663 5.54216C1.16663 3.61915 2.69977 2.04175 4.6136 2.04175C5.54197 2.04175 6.3822 2.41441 6.99996 3.01634C7.61772 2.41441 8.45794 2.04175 9.38632 2.04175C11.3002 2.04175 12.8333 3.61915 12.8333 5.54216C12.8333 5.99949 12.7152 6.43434 12.609 6.73771C12.5545 6.89311 12.5001 7.02282 12.4586 7.11485C12.4378 7.16103 12.4201 7.19814 12.4071 7.22474C12.4009 7.23735 12.3957 7.24763 12.3918 7.25541C12.3937 7.25123 12.3956 7.24706 12.3975 7.24288L12.3912 7.25668L11.3503 6.72961L11.3512 6.72797L11.3596 6.71113C11.3675 6.695 11.3797 6.66944 11.3948 6.63585C11.4252 6.56836 11.4665 6.47016 11.5079 6.35209C11.5932 6.10851 11.6666 5.81409 11.6666 5.54216C11.6666 4.24305 10.6356 3.20841 9.38632 3.20841C8.59861 3.20841 7.9001 3.61727 7.48845 4.24795C7.38074 4.41296 7.19701 4.51245 6.99996 4.51245C6.80291 4.51245 6.61918 4.41296 6.51147 4.24795C6.09982 3.61727 5.4013 3.20841 4.6136 3.20841Z" fill="white"/>
</svg>
