<svg width="current" height="current" viewBox="0 0 16 16" fill="currentColor" xmlns="http://www.w3.org/2000/svg">
<path d="M8.0002 0C8.42454 0 8.83151 0.168571 9.13157 0.468629C9.43162 0.768687 9.6002 1.17565 9.6002 1.6C9.6002 2.02435 9.43162 2.43131 9.13157 2.73137C8.83151 3.03143 8.42454 3.2 8.0002 3.2C7.57585 3.2 7.16888 3.03143 6.86882 2.73137C6.56877 2.43131 6.4002 2.02435 6.4002 1.6C6.4002 1.17565 6.56877 0.768687 6.86882 0.468629C7.16888 0.168571 7.57585 0 8.0002 0ZM6.8002 4H9.2002C9.62454 4 10.0315 4.16857 10.3316 4.46863C10.6316 4.76869 10.8002 5.17565 10.8002 5.6V10H9.6002V16H6.4002V10H5.2002V5.6C5.2002 5.17565 5.36877 4.76869 5.66882 4.46863C5.96888 4.16857 6.37585 4 6.8002 4Z" fill="currentColor"/>
</svg>
