<svg width="24" height="24" viewBox="0 0 24 24" fill="none" xmlns="http://www.w3.org/2000/svg">
<path fill-rule="evenodd" clip-rule="evenodd" d="M12 23C18.0751 23 23 18.0751 23 12C23 5.92487 18.0751 1 12 1C5.92487 1 1 5.92487 1 12C1 18.0751 5.92487 23 12 23ZM12 6C12.5523 6 13 6.44772 13 7V7.5C13 8.05228 12.5523 8.5 12 8.5C11.4477 8.5 11 8.05228 11 7.5V7C11 6.44772 11.4477 6 12 6ZM12 10.5C12.5523 10.5 13 10.9477 13 11.5V17C13 17.5523 12.5523 18 12 18C11.4477 18 11 17.5523 11 17V11.5C11 10.9477 11.4477 10.5 12 10.5Z" fill="#212529"/>
</svg>
