<svg width="14" height="14" viewBox="0 0 14 14" fill="none" xmlns="http://www.w3.org/2000/svg">
<path d="M7.00299 0.106445C4.12428 0.106445 3.28236 0.109415 3.11871 0.122991C2.52795 0.172097 2.16034 0.265113 1.75986 0.464507C1.45122 0.617766 1.20781 0.795418 0.96758 1.04445C0.530078 1.4986 0.264926 2.05733 0.16894 2.72149C0.122274 3.04391 0.108698 3.10967 0.10594 4.75659C0.10488 5.30556 0.10594 6.02805 0.10594 6.99713C0.10594 9.8735 0.109122 10.7146 0.12291 10.8779C0.170637 11.4528 0.260789 11.8144 0.451699 12.21C0.816549 12.9673 1.51337 13.5358 2.33428 13.7479C2.61853 13.8211 2.93247 13.8614 3.3355 13.8805C3.50626 13.8879 5.24672 13.8932 6.98824 13.8932C8.72976 13.8932 10.4713 13.8911 10.6378 13.8826C11.1045 13.8607 11.3755 13.8243 11.6751 13.7469C12.5013 13.5337 13.1854 12.9737 13.5577 12.2058C13.7449 11.8197 13.8398 11.4443 13.8827 10.8994C13.8921 10.7806 13.896 8.88671 13.896 6.99532C13.896 5.10362 13.8918 3.21319 13.8824 3.0944C13.8389 2.54076 13.744 2.16848 13.5508 1.775C13.3922 1.45289 13.2161 1.21234 12.9605 0.966388C12.5044 0.53069 11.9465 0.265537 11.2817 0.169658C10.9596 0.123097 10.8954 0.109309 9.24724 0.106445H7.00299Z" fill="url(#paint0_radial_3942_7027)"/>
<path d="M7.00299 0.106445C4.12428 0.106445 3.28236 0.109415 3.11871 0.122991C2.52795 0.172097 2.16034 0.265113 1.75986 0.464507C1.45122 0.617766 1.20781 0.795418 0.96758 1.04445C0.530078 1.4986 0.264926 2.05733 0.16894 2.72149C0.122274 3.04391 0.108698 3.10967 0.10594 4.75659C0.10488 5.30556 0.10594 6.02805 0.10594 6.99713C0.10594 9.8735 0.109122 10.7146 0.12291 10.8779C0.170637 11.4528 0.260789 11.8144 0.451699 12.21C0.816549 12.9673 1.51337 13.5358 2.33428 13.7479C2.61853 13.8211 2.93247 13.8614 3.3355 13.8805C3.50626 13.8879 5.24672 13.8932 6.98824 13.8932C8.72976 13.8932 10.4713 13.8911 10.6378 13.8826C11.1045 13.8607 11.3755 13.8243 11.6751 13.7469C12.5013 13.5337 13.1854 12.9737 13.5577 12.2058C13.7449 11.8197 13.8398 11.4443 13.8827 10.8994C13.8921 10.7806 13.896 8.88671 13.896 6.99532C13.896 5.10362 13.8918 3.21319 13.8824 3.0944C13.8389 2.54076 13.744 2.16848 13.5508 1.775C13.3922 1.45289 13.2161 1.21234 12.9605 0.966388C12.5044 0.53069 11.9465 0.265537 11.2817 0.169658C10.9596 0.123097 10.8954 0.109309 9.24724 0.106445H7.00299Z" fill="url(#paint1_radial_3942_7027)"/>
<path d="M6.99956 1.90918C5.61695 1.90918 5.44343 1.91523 4.9004 1.93994C4.35843 1.96476 3.98848 2.05056 3.66479 2.17645C3.32995 2.30648 3.04592 2.48042 2.76295 2.7635C2.47977 3.04647 2.30583 3.3305 2.17537 3.66523C2.04916 3.98904 1.96325 4.35908 1.93885 4.90084C1.91457 5.44388 1.9082 5.6175 1.9082 7.00011C1.9082 8.38272 1.91435 8.55571 1.93896 9.09874C1.96389 9.64071 2.04969 10.0107 2.17548 10.3344C2.30561 10.6692 2.47955 10.9532 2.76263 11.2362C3.0455 11.5194 3.32953 11.6937 3.66415 11.8238C3.98806 11.9497 4.35811 12.0355 4.89997 12.0603C5.44301 12.085 5.61642 12.091 6.99892 12.091C8.38164 12.091 8.55463 12.085 9.09766 12.0603C9.63963 12.0355 10.01 11.9497 10.3339 11.8238C10.6686 11.6937 10.9522 11.5194 11.2351 11.2362C11.5183 10.9532 11.6922 10.6692 11.8227 10.3345C11.9478 10.0107 12.0337 9.64061 12.0592 9.09885C12.0836 8.55582 12.09 8.38272 12.09 7.00011C12.09 5.6175 12.0836 5.44398 12.0592 4.90095C12.0337 4.35898 11.9478 3.98904 11.8227 3.66534C11.6922 3.3305 11.5183 3.04647 11.2351 2.7635C10.9519 2.48032 10.6687 2.30638 10.3336 2.17645C10.009 2.05056 9.63889 1.96476 9.09692 1.93994C8.55388 1.91523 8.381 1.90918 6.99797 1.90918H6.99956ZM6.54286 2.82661C6.67841 2.8264 6.82965 2.82661 6.99956 2.82661C8.35884 2.82661 8.51994 2.83149 9.05672 2.85588C9.55309 2.87858 9.82248 2.96152 10.0019 3.0312C10.2395 3.12347 10.4089 3.23378 10.587 3.41196C10.7652 3.59014 10.8755 3.75984 10.9679 3.99742C11.0376 4.17666 11.1207 4.44605 11.1433 4.94242C11.1677 5.47909 11.173 5.6403 11.173 6.99894C11.173 8.35759 11.1677 8.5188 11.1433 9.05547C11.1206 9.55183 11.0376 9.82123 10.9679 10.0005C10.8757 10.2381 10.7652 10.4072 10.587 10.5853C10.4088 10.7635 10.2396 10.8738 10.0019 10.9661C9.82269 11.0361 9.55309 11.1188 9.05672 11.1415C8.52005 11.1659 8.35884 11.1712 6.99956 11.1712C5.64017 11.1712 5.47907 11.1659 4.9424 11.1415C4.44603 11.1186 4.17664 11.0356 3.99708 10.9659C3.7595 10.8737 3.5898 10.7634 3.41162 10.5852C3.23344 10.407 3.12313 10.2377 3.03065 10C2.96097 9.82081 2.87792 9.55141 2.85533 9.05504C2.83093 8.51838 2.82606 8.35716 2.82606 6.99767C2.82606 5.63818 2.83093 5.47782 2.85533 4.94115C2.87803 4.44478 2.96097 4.17539 3.03065 3.99593C3.12292 3.75835 3.23344 3.58866 3.41162 3.41047C3.5898 3.23229 3.7595 3.12199 3.99708 3.0295C4.17653 2.9595 4.44603 2.87677 4.9424 2.85397C5.41204 2.83276 5.59404 2.8264 6.54286 2.82534V2.82661ZM9.71706 3.67191C9.37978 3.67191 9.10614 3.94523 9.10614 4.28261C9.10614 4.61989 9.37978 4.89353 9.71706 4.89353C10.0543 4.89353 10.328 4.61989 10.328 4.28261C10.328 3.94534 10.0543 3.6717 9.71706 3.6717V3.67191ZM6.99956 4.38571C5.55575 4.38571 4.38515 5.5563 4.38515 7.00011C4.38515 8.44392 5.55575 9.61399 6.99956 9.61399C8.44337 9.61399 9.61354 8.44392 9.61354 7.00011C9.61354 5.5563 8.44337 4.38571 6.99956 4.38571ZM6.99956 5.30313C7.93671 5.30313 8.69654 6.06285 8.69654 7.00011C8.69654 7.93727 7.93671 8.69709 6.99956 8.69709C6.0623 8.69709 5.30258 7.93727 5.30258 7.00011C5.30258 6.06285 6.0623 5.30313 6.99956 5.30313Z" fill="white"/>
<defs>
<radialGradient id="paint0_radial_3942_7027" cx="0" cy="0" r="1" gradientUnits="userSpaceOnUse" gradientTransform="translate(3.7686 14.9551) rotate(-90) scale(13.6637 12.7118)">
<stop stop-color="#FFDD55"/>
<stop offset="0.1" stop-color="#FFDD55"/>
<stop offset="0.5" stop-color="#FF543E"/>
<stop offset="1" stop-color="#C837AB"/>
</radialGradient>
<radialGradient id="paint1_radial_3942_7027" cx="0" cy="0" r="1" gradientUnits="userSpaceOnUse" gradientTransform="translate(-2.20452 1.09962) rotate(78.6776) scale(6.1078 25.1829)">
<stop stop-color="#3771C8"/>
<stop offset="0.128" stop-color="#3771C8"/>
<stop offset="1" stop-color="#6600FF" stop-opacity="0"/>
</radialGradient>
</defs>
</svg>
