<svg width="16" height="17" viewBox="0 0 16 17" fill="none" xmlns="http://www.w3.org/2000/svg">
<path d="M5.27265 4.16683C3.84493 4.16683 2.66659 5.34927 2.66659 6.83396C2.66659 7.14475 2.75054 7.48123 2.84803 7.7596C2.89529 7.89454 2.94249 8.00677 2.97722 8.0839C2.99451 8.12229 3.00848 8.15149 3.01753 8.16993L3.02711 8.18918L3.02806 8.19105L3.02862 8.19213C3.0341 8.20261 3.03934 8.21333 3.04425 8.22409C3.40665 9.01821 4.11174 9.89239 4.93388 10.7248C5.74662 11.5478 6.63135 12.288 7.30533 12.8168C7.7181 13.1407 8.28174 13.1407 8.69451 12.8168C9.36849 12.288 10.2532 11.5478 11.066 10.7248C11.8881 9.89239 12.5932 9.01821 12.9556 8.22409C12.9606 8.21317 12.9658 8.20239 12.9714 8.19176L12.9718 8.19105L14.1613 8.79342L14.1524 8.81066L14.1529 8.8098L14.1536 8.80838L14.1556 8.80461L14.1613 8.79342L14.162 8.79197C13.7002 9.79608 12.8675 10.7981 12.0146 11.6618C11.1482 12.539 10.2163 13.3175 9.51756 13.8658C8.62158 14.5688 7.37826 14.5688 6.48228 13.8658C5.7835 13.3175 4.85161 12.539 3.98522 11.6618C3.13229 10.7981 2.29959 9.79608 1.83782 8.79198L1.83855 8.79342L1.84429 8.80461L1.84624 8.80838L1.84698 8.8098L1.84729 8.81039L1.83855 8.79342L1.83125 8.77764C1.83343 8.78242 1.83562 8.7872 1.83782 8.79198C1.8333 8.78308 1.82742 8.77133 1.82035 8.75691C1.80545 8.72652 1.78522 8.6841 1.76146 8.63133C1.71409 8.52615 1.65184 8.37792 1.58964 8.20031C1.46821 7.8536 1.33325 7.35663 1.33325 6.83396C1.33325 4.63624 3.08541 2.8335 5.27265 2.8335C6.33365 2.8335 7.29391 3.25939 7.99992 3.94732C8.70593 3.25939 9.66619 2.8335 10.7272 2.8335C12.9144 2.8335 14.6666 4.63624 14.6666 6.83396C14.6666 7.35663 14.5316 7.8536 14.4102 8.20031C14.348 8.37792 14.2857 8.52615 14.2384 8.63133C14.2146 8.6841 14.1944 8.72652 14.1795 8.75691C14.1724 8.77133 14.1665 8.78307 14.162 8.79197C14.1642 8.7872 14.1664 8.78242 14.1686 8.77764L14.1613 8.79342L12.9718 8.19105L12.9727 8.18918L12.9823 8.16993C12.9914 8.15149 13.0053 8.12229 13.0226 8.0839C13.0573 8.00677 13.1045 7.89454 13.1518 7.7596C13.2493 7.48123 13.3333 7.14475 13.3333 6.83396C13.3333 5.34927 12.1549 4.16683 10.7272 4.16683C9.82695 4.16683 9.02865 4.6341 8.55819 5.35487C8.4351 5.54346 8.22512 5.65715 7.99992 5.65715C7.77472 5.65715 7.56474 5.54346 7.44165 5.35487C6.97119 4.6341 6.17288 4.16683 5.27265 4.16683Z" fill="#ADB5BD"/>
</svg>
