<svg width="16" height="17" viewBox="0 0 16 17" fill="none" xmlns="http://www.w3.org/2000/svg">
<path fill-rule="evenodd" clip-rule="evenodd" d="M14.1621 8.79182C13.7003 9.79593 12.8676 10.798 12.0147 11.6616C11.1483 12.5389 10.2164 13.3173 9.51764 13.8656C8.62166 14.5686 7.37834 14.5686 6.48236 13.8656C5.78359 13.3173 4.8517 12.5389 3.9853 11.6616C3.13237 10.798 2.29968 9.79593 1.8379 8.79182L1.83864 8.79327L1.84437 8.80446L1.84633 8.80823L1.84707 8.80964L1.83864 8.79327L1.83134 8.77749L1.8379 8.79182C1.83339 8.78292 1.8275 8.77118 1.82043 8.75676C1.80553 8.72637 1.7853 8.68395 1.76154 8.63118C1.71418 8.52599 1.65192 8.37776 1.58972 8.20016C1.4683 7.85345 1.33334 7.35648 1.33334 6.83381C1.33334 4.63609 3.0855 2.83334 5.27273 2.83334C6.33373 2.83334 7.29399 3.25924 8 3.94717C8.70602 3.25924 9.66627 2.83334 10.7273 2.83334C12.9145 2.83334 14.6667 4.63609 14.6667 6.83381C14.6667 7.35648 14.5317 7.85345 14.4103 8.20016C14.3481 8.37776 14.2858 8.52599 14.2385 8.63118C14.2147 8.68395 14.1945 8.72637 14.1796 8.75676C14.1725 8.77118 14.1666 8.78292 14.1621 8.79182ZM14.1537 8.80823L14.1614 8.79327L14.1556 8.80446L14.1537 8.80823ZM14.1621 8.79182L14.1614 8.79327L14.1687 8.77749L14.1621 8.79182Z" fill="#FB3E34"/>
</svg>
