<svg width="90" height="38" viewBox="0 0 90 38" fill="none" xmlns="http://www.w3.org/2000/svg">
<g clip-path="url(#clip0_100_1551)">
<path d="M51.465 5.65354C51.465 5.8164 51.4573 5.97925 51.4419 6.14211C49.685 6.54538 47.8511 6.75476 45.9632 6.75476C44.1138 6.76252 42.2799 6.55313 40.4768 6.14211C40.4614 5.97925 40.4614 5.8164 40.4614 5.65354C40.4614 2.93925 41.5556 0.108643 42.6575 0.108643C43.2084 0.108643 43.7594 0.385888 44.3103 0.663132C44.8613 0.940377 45.4122 1.21762 45.9632 1.21762C46.5093 1.21762 47.0574 0.941349 47.6064 0.664591C48.1574 0.386861 48.7093 0.108643 49.2612 0.108643C50.3631 0.108643 51.465 2.99354 51.465 5.65354Z" fill="black"/>
<path d="M52.5438 10.9968C48.2441 12.2997 43.6515 12.2919 39.3749 10.9968C38.7276 10.7797 38.2576 10.167 38.2576 9.43803C38.2576 9.08905 38.3654 8.75558 38.5581 8.4764C38.7584 8.19722 39.0281 7.98007 39.3595 7.86374C41.44 8.53068 43.6515 8.87966 45.9632 8.87966C48.2749 8.87966 50.4787 8.53068 52.5592 7.86374C52.8983 7.98007 53.168 8.18946 53.3683 8.46864C53.5609 8.75558 53.6688 9.08905 53.6688 9.43803C53.6688 9.77925 53.5532 10.1205 53.3529 10.3997C53.1525 10.6788 52.8674 10.8882 52.5438 10.9968Z" fill="black"/>
<path d="M23.8233 15.171C23.2615 15.4739 22.7598 15.9031 22.3183 16.4584V8.14292H18.0592V31.4082H22.3183V19.3818C22.519 19.0485 22.7648 18.786 23.0558 18.5941C23.3468 18.4023 23.7029 18.3063 24.1243 18.3063C24.4354 18.3063 24.7063 18.3518 24.937 18.4427C25.1678 18.5335 25.3635 18.685 25.524 18.8971C25.6845 19.1091 25.8049 19.3919 25.8852 19.7453C25.9655 20.0987 26.0056 20.538 26.0056 21.063V31.4082H30.2798V21.0933C30.2798 19.9321 30.1694 18.9476 29.9487 18.1397C29.728 17.3319 29.4169 16.6755 29.0156 16.1707C28.6143 15.6658 28.1327 15.2972 27.5708 15.065C27.0089 14.8327 26.3919 14.7166 25.7197 14.7166C25.0273 14.7166 24.3952 14.868 23.8233 15.171Z" fill="black"/>
<path d="M66.6492 31.4082H62.375V8.14292H66.6492V31.4082Z" fill="black"/>
<path d="M74.1068 31.4082H69.8326V15.0195H74.1068V31.4082Z" fill="black"/>
<path d="M69.8025 9.86964C69.6921 10.1423 69.6369 10.4452 69.6369 10.7784C69.6369 11.1117 69.6921 11.4196 69.8025 11.7024C69.9128 11.975 70.0684 12.2174 70.269 12.4294C70.4697 12.6314 70.7105 12.7879 70.9914 12.899C71.2824 13.0101 71.6035 13.0656 71.9546 13.0656C72.3058 13.0656 72.6219 13.0101 72.9028 12.899C73.1938 12.7879 73.4396 12.6314 73.6402 12.4294C73.8409 12.2174 73.9964 11.975 74.1068 11.7024C74.2172 11.4196 74.2723 11.1117 74.2723 10.7784C74.2723 10.4452 74.2172 10.1423 74.1068 9.86964C73.9964 9.5869 73.8409 9.34455 73.6402 9.1426C73.4396 8.94064 73.1938 8.78413 72.9028 8.67305C72.6219 8.56197 72.3058 8.50644 71.9546 8.50644C71.6035 8.50644 71.2824 8.56197 70.9914 8.67305C70.7105 8.78413 70.4697 8.94064 70.269 9.1426C70.0684 9.34455 69.9128 9.5869 69.8025 9.86964Z" fill="black"/>
<path d="M80.9925 15.0195L81.1129 16.6402C81.5844 16.0141 82.1363 15.5395 82.7684 15.2164C83.4005 14.8832 84.1078 14.7166 84.8904 14.7166C85.5225 14.7166 86.1045 14.8277 86.6363 15.0498C87.168 15.2619 87.6245 15.6153 88.0058 16.1101C88.3871 16.6049 88.6831 17.2511 88.8938 18.0488C89.1045 18.8466 89.2098 19.8261 89.2098 20.9873V31.4082H84.9356V20.9722C84.9356 20.4471 84.8955 20.0129 84.8152 19.6695C84.7349 19.3262 84.6145 19.0536 84.454 18.8516C84.3035 18.6497 84.1129 18.5083 83.8821 18.4275C83.6513 18.3467 83.3804 18.3063 83.0694 18.3063C82.6681 18.3063 82.3169 18.4124 82.0159 18.6244C81.7149 18.8365 81.464 19.1293 81.2634 19.5029V31.4082H76.9892V15.0195H80.9925Z" fill="black"/>
<path fill-rule="evenodd" clip-rule="evenodd" d="M58.5896 29.6512C59.4725 28.2779 59.914 26.3038 59.914 23.7289V22.6534C59.914 19.9674 59.4725 17.9731 58.5896 16.6705C57.7167 15.3679 56.4023 14.7166 54.6465 14.7166C53.914 14.7166 53.2719 14.8731 52.7201 15.1861C52.1783 15.4992 51.7117 15.9435 51.3204 16.519L51.1699 15.0195H47.2268V37.7092H51.486V30.0905C51.8672 30.6054 52.3187 31.0043 52.8405 31.287C53.3722 31.5698 53.9843 31.7112 54.6766 31.7112C56.4123 31.7112 57.7167 31.0245 58.5896 29.6512ZM55.5495 20.6692C55.6297 21.2145 55.6699 21.8759 55.6699 22.6534V23.7289C55.6699 25.2435 55.5043 26.3593 55.1732 27.0763C54.8522 27.7932 54.2702 28.1517 53.4274 28.1517C52.9458 28.1517 52.5445 28.0608 52.2234 27.879C51.9124 27.6872 51.6666 27.4246 51.486 27.0914V19.412C51.6766 19.0586 51.9274 18.786 52.2385 18.5941C52.5595 18.4023 52.9458 18.3063 53.3973 18.3063C53.8187 18.3063 54.1699 18.3871 54.4508 18.5487C54.7418 18.7103 54.9776 18.9677 55.1582 19.3212C55.3388 19.6645 55.4692 20.1138 55.5495 20.6692Z" fill="black"/>
<path fill-rule="evenodd" clip-rule="evenodd" d="M40.5518 30.8326C40.612 31.0447 40.6822 31.2366 40.7625 31.4082H45.0518V31.1507C44.9514 30.9387 44.8611 30.7165 44.7809 30.4843C44.7106 30.2419 44.6504 29.9743 44.6003 29.6815C44.5501 29.3786 44.51 29.0453 44.4799 28.6818C44.4598 28.3082 44.4498 27.8841 44.4498 27.4095V20.1391C44.4498 19.1798 44.3093 18.3619 44.0284 17.6853C43.7474 16.9987 43.3561 16.4382 42.8545 16.004C42.3528 15.5597 41.7608 15.2366 41.0786 15.0347C40.3963 14.8226 39.6488 14.7166 38.8361 14.7166C37.913 14.7166 37.0853 14.8579 36.3528 15.1407C35.6204 15.4133 34.9933 15.7869 34.4716 16.2615C33.9499 16.7361 33.5485 17.2915 33.2676 17.9277C32.9967 18.5537 32.8612 19.2252 32.8612 19.9422H37.1204C37.1204 19.3464 37.2458 18.887 37.4966 18.5638C37.7575 18.2306 38.1639 18.064 38.7157 18.064C39.1973 18.064 39.5635 18.2155 39.8144 18.5184C40.0652 18.8213 40.1906 19.3414 40.1906 20.0785V21.3963H39.0318C37.9381 21.3963 36.9849 21.5225 36.1722 21.7749C35.3696 22.0274 34.6973 22.3909 34.1555 22.8655C33.6238 23.33 33.2224 23.9005 32.9515 24.5771C32.6907 25.2435 32.5602 25.9908 32.5602 26.8188C32.5602 27.566 32.6806 28.2426 32.9214 28.8484C33.1723 29.4442 33.5084 29.9541 33.9298 30.3782C34.3612 30.8024 34.8629 31.1305 35.4348 31.3628C36.0167 31.595 36.6388 31.7112 37.301 31.7112C38.0334 31.7112 38.6505 31.5597 39.1522 31.2568C39.6639 30.9538 40.0802 30.5802 40.4013 30.1359C40.4515 30.3782 40.5016 30.6105 40.5518 30.8326ZM39.4532 28.0608C39.1221 28.2527 38.7207 28.3486 38.2491 28.3486C37.7976 28.3486 37.4465 28.1971 37.1956 27.8942C36.9548 27.5812 36.8344 27.1268 36.8344 26.531C36.8344 26.1776 36.8796 25.8443 36.9699 25.5313C37.0702 25.2183 37.2157 24.9456 37.4063 24.7134C37.607 24.4811 37.8528 24.2994 38.1438 24.1681C38.4348 24.0368 38.7809 23.9712 39.1823 23.9712H40.1906V27.3792C40.0301 27.6417 39.7843 27.8689 39.4532 28.0608Z" fill="black"/>
<path d="M15.9594 24.0621C15.849 26.5764 15.1467 28.4799 13.8524 29.7724C12.5581 31.0649 10.732 31.7112 8.37418 31.7112C7.16014 31.7112 6.07654 31.5092 5.12337 31.1053C4.1702 30.7014 3.36753 30.1006 2.71536 29.3028C2.06319 28.5051 1.56152 27.5206 1.21036 26.3492C0.869221 25.1678 0.698654 23.8096 0.698654 22.2748V18.5184C0.698654 16.9835 0.874238 15.6254 1.22541 14.4439C1.58661 13.2625 2.10333 12.2729 2.77556 11.4752C3.4478 10.6775 4.2605 10.0766 5.21367 9.67273C6.16684 9.25872 7.24041 9.05172 8.43438 9.05172C10.8223 9.05172 12.6333 9.72322 13.8675 11.0662C15.1116 12.4092 15.8189 14.3379 15.9895 16.8523H11.5497C11.5297 16.0646 11.4594 15.4083 11.339 14.8832C11.2287 14.348 11.0531 13.9239 10.8123 13.6109C10.5715 13.2978 10.2554 13.0757 9.86414 12.9444C9.48287 12.8131 9.00628 12.7475 8.43438 12.7475C7.84241 12.7475 7.33573 12.8485 6.91433 13.0504C6.50296 13.2524 6.16684 13.5806 5.90597 14.035C5.64511 14.4793 5.44945 15.07 5.31902 15.8071C5.19862 16.5342 5.13842 17.4278 5.13842 18.4881V22.2748C5.13842 23.3047 5.18859 24.1833 5.28892 24.9103C5.38925 25.6373 5.56484 26.2331 5.81567 26.6976C6.06651 27.152 6.39761 27.4852 6.80898 27.6973C7.22034 27.9093 7.74208 28.0154 8.37418 28.0154C8.91598 28.0154 9.37752 27.9598 9.75879 27.8488C10.1501 27.7276 10.4712 27.5206 10.722 27.2277C10.9728 26.9349 11.1635 26.531 11.2939 26.016C11.4243 25.501 11.5046 24.8497 11.5347 24.0621H15.9594Z" fill="black"/>
</g>
<defs>
<clipPath id="clip0_100_1551">
<rect width="89" height="38" fill="white" transform="translate(0.5)"/>
</clipPath>
</defs>
</svg>
