<svg width="96" height="20" viewBox="0 0 403 87" fill="none" xmlns="http://www.w3.org/2000/svg">
<path fill-rule="evenodd" clip-rule="evenodd" d="M7.40425 3.70213V0H0V66.6383H7.40425V61.0851H12.9574V66.6383H46.2766V61.0851H51.8298V66.6383H59.234V0H51.8298V3.70213H46.2766V0H12.9574V3.70213H7.40425ZM12.9574 9.25532H7.40425V16.6596H12.9574V9.25532ZM7.40425 22.2128H12.9574V29.617H7.40425V22.2128ZM12.9574 35.1702H7.40425V42.5745H12.9574V35.1702ZM7.40425 48.1277H12.9574V55.5319H7.40425V48.1277ZM51.8298 9.25532H46.2766V16.6596H51.8298V9.25532ZM46.2766 22.2128H51.8298V29.617H46.2766V22.2128ZM51.8298 35.1702H46.2766V42.5745H51.8298V35.1702ZM46.2766 48.1277H51.8298V55.5319H46.2766V48.1277Z" fill="black"/>
<path d="M85.6569 21.8657V29.1543H93.2058V66.6383H102.143V29.1543H114.03V21.8657H102.143V17.4405C102.143 12.8418 104.269 10.6292 108.824 10.6725C110.386 10.6292 112.121 10.8895 114.03 11.4535V3.21044C112.208 2.51629 109.952 1.99568 107.262 1.99568C98.4986 1.99568 93.2058 7.63564 93.2058 17.0067V21.8657H85.6569Z" fill="black"/>
<path d="M120.475 66.6384V21.8658H129.413V66.6384H120.475Z" fill="black"/>
<path d="M119.348 7.8093C119.261 11.0197 121.69 13.4059 124.987 13.4493C128.198 13.4059 130.627 11.0197 130.714 7.8093C130.627 4.55547 128.198 2.12595 124.987 2.16934C121.69 2.12595 119.261 4.55547 119.348 7.8093Z" fill="black"/>
<path d="M138.027 3.81782V66.6383H146.964V3.81782H138.027Z" fill="black"/>
<path fill-rule="evenodd" clip-rule="evenodd" d="M153.409 44.252C153.409 57.7011 163.388 67.8531 176.663 67.8531C189.852 67.8531 199.83 57.7011 199.83 44.252C199.83 30.8029 189.852 20.6509 176.663 20.6509C163.388 20.6509 153.409 30.8029 153.409 44.252ZM190.893 44.252C190.893 53.1892 184.993 59.4799 176.663 59.4365C168.247 59.4799 162.346 53.1892 162.346 44.252C162.346 35.3148 168.247 29.0241 176.663 29.0675C184.993 29.0241 190.893 35.3148 190.893 44.252Z" fill="black"/>
<path fill-rule="evenodd" clip-rule="evenodd" d="M205.061 75.6622C210.267 82.9508 216.775 86.5951 225.712 86.5951C239.898 86.5951 248.749 77.5711 248.792 62.1263V21.8657H239.855V28.2866H239.508C236.471 23.254 231.699 20.6509 225.365 20.6509C212.957 20.6509 204.106 30.5426 204.106 43.5578C204.106 56.5731 212.957 66.4648 225.365 66.4648C231.699 66.4648 236.558 63.8183 239.508 58.7424H239.855V62.1263C239.768 72.7555 234.736 78.3955 225.538 78.3521C219.681 78.3955 215.56 76.1395 211.742 70.6297L205.061 75.6622ZM240.202 43.5578C240.159 52.1479 234.562 58.1784 226.666 58.2217C218.77 58.1784 213.217 52.0612 213.217 43.5578C213.217 35.0545 218.77 28.9373 226.666 28.894C234.562 28.9373 240.159 34.9678 240.202 43.5578Z" fill="black"/>
<path d="M266.344 21.8657H257.407V66.6383H266.344V44.9461C266.344 35.0979 270.596 29.4579 277.971 29.4146C279.533 29.4579 281.268 29.7183 283.003 30.1955V21.5186C281.485 20.9546 280.01 20.6509 278.405 20.6509C273.329 20.6509 268.99 23.818 266.691 28.6336H266.344V21.8657Z" fill="black"/>
<path fill-rule="evenodd" clip-rule="evenodd" d="M321.032 66.6383H329.969V21.8657H321.032V28.5469H320.685C317.692 23.3408 312.876 20.6509 306.542 20.6509C294.134 20.6509 285.284 30.8029 285.37 44.252C285.284 57.7011 294.134 67.8531 306.542 67.8531C312.919 67.8531 317.735 65.1199 320.685 59.8704H321.032V66.6383ZM321.379 44.252C321.336 53.1892 315.739 59.4799 307.93 59.4365C299.947 59.4799 294.394 53.1458 294.481 44.252C294.394 35.3582 299.947 29.0241 307.93 29.0675C315.739 29.0241 321.336 35.3148 321.379 44.252Z" fill="black"/>
<path d="M338.584 21.8657H347.521V28.3733H347.868C349.994 23.6011 354.506 20.6509 360.449 20.6509C366.784 20.6509 371.296 23.9915 373.465 29.8484H373.812C375.677 24.2084 380.667 20.6509 387.434 20.6509C397.066 20.6509 402.489 27.8093 402.532 39.4797V66.6383H393.508V40.868C393.508 33.2324 390.471 29.0241 385.178 29.0675C379.886 29.0241 375.027 33.2324 375.027 42.5166V66.6383H366.089V40.868C366.046 33.2324 363.009 29.0241 357.673 29.0675C352.38 29.0241 347.521 33.2324 347.521 42.5166V66.6383H338.584V21.8657Z" fill="black"/>
</svg>
