<svg width="24" height="24" viewBox="0 0 24 24" fill="none" xmlns="http://www.w3.org/2000/svg">
<path d="M17.7071 7.29289C17.3166 6.90237 16.6834 6.90237 16.2929 7.29289C15.9024 7.68342 15.9024 8.31658 16.2929 8.70711L18.5858 11H9C8.44771 11 8 11.4477 8 12C8 12.5523 8.44771 13 9 13H18.5858L16.2929 15.2929C15.9024 15.6834 15.9024 16.3166 16.2929 16.7071C16.6834 17.0976 17.3166 17.0976 17.7071 16.7071L21.7071 12.7071C22.0976 12.3166 22.0976 11.6834 21.7071 11.2929L17.7071 7.29289Z" fill="#212529"/>
<path d="M9 4C9.55228 4 10 3.55228 10 3C10 2.44772 9.55229 2 9 2L5 2C3.34315 2 2 3.34315 2 5L2 19C2 20.6569 3.34314 22 5 22H9C9.55228 22 10 21.5523 10 21C10 20.4477 9.55228 20 9 20H5C4.44771 20 4 19.5523 4 19L4 5C4 4.44772 4.44772 4 5 4L9 4Z" fill="#212529"/>
</svg>
