<svg width="72" height="20" viewBox="0 0 72 20" fill="none" xmlns="http://www.w3.org/2000/svg">
<path d="M31.7157 7.22879C31.9791 6.89952 32.2784 6.64509 32.6137 6.46549C32.9549 6.2859 33.3321 6.1961 33.7451 6.1961C34.1462 6.1961 34.5144 6.26494 34.8497 6.40264C35.1849 6.54033 35.4723 6.75884 35.7117 7.05817C35.9512 7.3575 36.1368 7.74662 36.2685 8.22555C36.4002 8.70448 36.4661 9.28817 36.4661 9.97663V16.0919H33.9158V9.95867C33.9158 9.64737 33.8918 9.38695 33.8439 9.17742C33.796 8.96789 33.7242 8.80026 33.6284 8.67455C33.5326 8.54883 33.4159 8.45903 33.2782 8.40515C33.1405 8.35127 32.9789 8.32433 32.7933 8.32433C32.5418 8.32433 32.3293 8.3812 32.1557 8.49495C31.9821 8.60869 31.8354 8.76435 31.7157 8.9619V16.0919H29.1744V2.29883H31.7157V7.22879Z" fill="#212529"/>
<path d="M55.6162 16.0919H58.1665V2.29883H55.6162V16.0919Z" fill="#212529"/>
<path d="M62.6162 16.0919H60.0659V6.3757H62.6162V16.0919Z" fill="#212529"/>
<path d="M59.9492 3.86133C59.9492 3.66377 59.9821 3.48417 60.048 3.32254C60.1138 3.15491 60.2066 3.01123 60.3263 2.8915C60.4461 2.77177 60.5897 2.67898 60.7574 2.61312C60.931 2.54727 61.1226 2.51435 61.3321 2.51435C61.5416 2.51435 61.7302 2.54727 61.8978 2.61312C62.0714 2.67898 62.2181 2.77177 62.3378 2.8915C62.4576 3.01123 62.5504 3.15491 62.6162 3.32254C62.6821 3.48417 62.715 3.66377 62.715 3.86133C62.715 4.05889 62.6821 4.24148 62.6162 4.4091C62.5504 4.57074 62.4576 4.71442 62.3378 4.84014C62.2181 4.95987 62.0714 5.05266 61.8978 5.11851C61.7302 5.18436 61.5416 5.21729 61.3321 5.21729C61.1226 5.21729 60.931 5.18436 60.7574 5.11851C60.5897 5.05266 60.4461 4.95987 60.3263 4.84014C60.2066 4.71442 60.1138 4.57074 60.048 4.4091C59.9821 4.24148 59.9492 4.05889 59.9492 3.86133Z" fill="#212529"/>
<path d="M66.7247 6.3757L66.7965 7.33654C67.0779 6.96537 67.4072 6.68401 67.7843 6.49243C68.1615 6.29488 68.5835 6.1961 69.0505 6.1961C69.4276 6.1961 69.7749 6.26195 70.0922 6.39366C70.4094 6.51937 70.6818 6.7289 70.9093 7.02225C71.1368 7.31559 71.3134 7.69873 71.4391 8.17167C71.5649 8.64461 71.6277 9.22531 71.6277 9.91377V16.0919H69.0774V9.90479C69.0774 9.59349 69.0535 9.33606 69.0056 9.13252C68.9577 8.92898 68.8859 8.76734 68.7901 8.64761C68.7003 8.52787 68.5865 8.44406 68.4488 8.39617C68.3111 8.34828 68.1495 8.32433 67.9639 8.32433C67.7245 8.32433 67.5149 8.38719 67.3353 8.51291C67.1557 8.63863 67.0061 8.81224 66.8863 9.03374V16.0919H64.336V6.3757H66.7247Z" fill="#212529"/>
<path fill-rule="evenodd" clip-rule="evenodd" d="M54.1478 11.5391C54.1478 13.0657 53.8844 14.2361 53.3576 15.0503C52.8367 15.8644 52.0585 16.2715 51.0228 16.2715C50.6097 16.2715 50.2446 16.1877 49.9273 16.0201C49.616 15.8525 49.3466 15.616 49.1191 15.3107V19.8276H46.5778V6.3757H48.9305L49.0203 7.2647C49.2538 6.92347 49.5321 6.66006 49.8554 6.47447C50.1847 6.28889 50.5678 6.1961 51.0048 6.1961C52.0525 6.1961 52.8367 6.58223 53.3576 7.3545C53.8844 8.12677 54.1478 9.30912 54.1478 10.9016V11.5391ZM51.6155 10.9016C51.6155 10.4406 51.5915 10.0485 51.5436 9.72519C51.4958 9.39593 51.4179 9.12953 51.3102 8.92598C51.2024 8.71645 51.0617 8.56379 50.8881 8.46801C50.7205 8.37222 50.511 8.32433 50.2595 8.32433C49.9901 8.32433 49.7596 8.3812 49.5681 8.49495C49.3825 8.60869 49.2328 8.77033 49.1191 8.97986V13.5327C49.2268 13.7302 49.3735 13.8859 49.5591 13.9996C49.7507 14.1074 49.9901 14.1613 50.2775 14.1613C50.7804 14.1613 51.1276 13.9487 51.3191 13.5237C51.5167 13.0986 51.6155 12.4371 51.6155 11.5391V10.9016Z" fill="#212529"/>
<path fill-rule="evenodd" clip-rule="evenodd" d="M42.595 15.7507C42.6309 15.8764 42.6728 15.9902 42.7207 16.0919H45.28V15.9393C45.2201 15.8136 45.1663 15.6818 45.1184 15.5442C45.0765 15.4005 45.0405 15.2418 45.0106 15.0682C44.9807 14.8886 44.9567 14.6911 44.9388 14.4756C44.9268 14.254 44.9208 14.0026 44.9208 13.7212V9.4109C44.9208 8.84217 44.837 8.35726 44.6694 7.95616C44.5017 7.54907 44.2683 7.21681 43.9689 6.95939C43.6696 6.69598 43.3164 6.50441 42.9093 6.38468C42.5022 6.25896 42.0562 6.1961 41.5713 6.1961C41.0205 6.1961 40.5267 6.27991 40.0896 6.44754C39.6526 6.60917 39.2784 6.83068 38.9671 7.11205C38.6558 7.39342 38.4164 7.72268 38.2488 8.09983C38.0871 8.471 38.0063 8.86911 38.0063 9.29416H40.5476C40.5476 8.94095 40.6224 8.66856 40.7721 8.47699C40.9278 8.27943 41.1702 8.18065 41.4995 8.18065C41.7868 8.18065 42.0053 8.27045 42.155 8.45005C42.3047 8.62965 42.3795 8.93796 42.3795 9.37498V10.1562H41.688C41.0355 10.1562 40.4668 10.2311 39.9819 10.3807C39.5029 10.5304 39.1018 10.7459 38.7786 11.0273C38.4613 11.3027 38.2218 11.6409 38.0602 12.042C37.9045 12.4371 37.8267 12.8801 37.8267 13.371C37.8267 13.814 37.8985 14.2151 38.0422 14.5743C38.1919 14.9275 38.3924 15.2299 38.6439 15.4813C38.9013 15.7327 39.2006 15.9273 39.5419 16.065C39.8891 16.2027 40.2602 16.2715 40.6554 16.2715C41.0924 16.2715 41.4606 16.1817 41.7599 16.0021C42.0652 15.8225 42.3136 15.601 42.5052 15.3376C42.5352 15.4813 42.5651 15.619 42.595 15.7507ZM41.9395 14.1074C41.7419 14.2211 41.5025 14.278 41.2211 14.278C40.9517 14.278 40.7422 14.1882 40.5925 14.0086C40.4488 13.823 40.377 13.5536 40.377 13.2004C40.377 12.9909 40.4039 12.7933 40.4578 12.6077C40.5177 12.4222 40.6045 12.2605 40.7182 12.1228C40.838 11.9851 40.9846 11.8774 41.1582 11.7995C41.3318 11.7217 41.5384 11.6828 41.7778 11.6828H42.3795V13.7033C42.2837 13.8589 42.137 13.9936 41.9395 14.1074Z" fill="#212529"/>
<path d="M26.6643 15.1221C27.4366 14.3558 27.8557 13.2273 27.9215 11.7367H25.2814C25.2635 12.2036 25.2156 12.5898 25.1378 12.8951C25.0599 13.2004 24.9462 13.4399 24.7965 13.6135C24.6469 13.7871 24.4553 13.9098 24.2218 13.9817C23.9943 14.0475 23.7189 14.0804 23.3957 14.0804C23.0185 14.0804 22.7072 14.0176 22.4618 13.8919C22.2163 13.7661 22.0187 13.5686 21.8691 13.2992C21.7194 13.0238 21.6146 12.6706 21.5548 12.2396C21.4949 11.8085 21.465 11.2877 21.465 10.6771V8.43209C21.465 7.8035 21.5009 7.27368 21.5727 6.84265C21.6506 6.40563 21.7673 6.05541 21.923 5.792C22.0786 5.52261 22.2792 5.32804 22.5246 5.20831C22.776 5.08858 23.0784 5.02871 23.4316 5.02871C23.7728 5.02871 24.0572 5.06763 24.2847 5.14545C24.5181 5.22328 24.7067 5.35498 24.8504 5.54057C24.9941 5.72615 25.0988 5.97759 25.1647 6.29488C25.2365 6.60618 25.2784 6.99531 25.2904 7.46226H27.9395C27.8377 5.9716 27.4157 4.82816 26.6733 4.03195C25.937 3.23573 24.8564 2.83762 23.4316 2.83762C22.7192 2.83762 22.0786 2.96035 21.5099 3.2058C20.9412 3.44526 20.4562 3.80146 20.0551 4.2744C19.654 4.74734 19.3457 5.33403 19.1302 6.03446C18.9207 6.73489 18.8159 7.54009 18.8159 8.45005V10.6771C18.8159 11.587 18.9177 12.3922 19.1212 13.0926C19.3308 13.7871 19.6301 14.3708 20.0192 14.8437C20.4084 15.3167 20.8873 15.6729 21.456 15.9123C22.0247 16.1518 22.6713 16.2715 23.3957 16.2715C24.8025 16.2715 25.8921 15.8884 26.6643 15.1221Z" fill="#212529"/>
<path d="M13.1111 10.0537C13.1264 9.89281 13.1341 9.73189 13.1341 9.57097C13.1341 6.94262 12.0383 4.09204 10.9425 4.09204C9.84674 4.09204 8.75096 5.18783 7.66284 5.18783C6.56705 5.18783 5.47126 4.09204 4.37548 4.09204C3.27969 4.09204 2.19157 6.88898 2.19157 9.57097C2.19157 9.73189 2.19157 9.89281 2.2069 10.0537C4 10.4599 5.82376 10.6668 7.66284 10.6591C9.54023 10.6591 11.364 10.4522 13.1111 10.0537ZM1.11111 14.8507C5.36399 16.1304 9.93104 16.138 14.2069 14.8507C14.5287 14.7434 14.8123 14.5365 15.0115 14.2606C15.2107 13.9848 15.3257 13.6476 15.3257 13.3104C15.3257 12.9656 15.2184 12.6361 15.0268 12.3526C14.8276 12.0767 14.5594 11.8698 14.2222 11.7549C12.1533 12.4139 9.96169 12.7587 7.66284 12.7587C5.36399 12.7587 3.16475 12.4139 1.09579 11.7549C0.766284 11.8698 0.498084 12.0844 0.298851 12.3602C0.10728 12.6361 0 12.9656 0 13.3104C0 14.0307 0.467433 14.6361 1.11111 14.8507Z" fill="#212529"/>
</svg>
