<svg width="89" height="38" viewBox="0 0 89 38" fill="none" xmlns="http://www.w3.org/2000/svg">
<g clip-path="url(#clip0_127_838)">
<path d="M50.965 5.6533C50.965 5.81615 50.9573 5.97901 50.9419 6.14187C49.185 6.54513 47.351 6.75452 45.4632 6.75452C43.6138 6.76228 41.7799 6.55289 39.9767 6.14187C39.9613 5.97901 39.9613 5.81615 39.9613 5.6533C39.9613 2.93901 41.0555 0.108398 42.1574 0.108398C42.7084 0.108398 43.2593 0.385643 43.8103 0.662888C44.3612 0.940133 44.9122 1.21738 45.4632 1.21738C46.0093 1.21738 46.5574 0.941105 47.1064 0.664347C47.6573 0.386617 48.2092 0.108398 48.7612 0.108398C49.8631 0.108398 50.965 2.9933 50.965 5.6533Z" fill="white"/>
<path d="M52.0438 10.9966C47.744 12.2994 43.1515 12.2917 38.8748 10.9966C38.2276 10.7794 37.7575 10.1668 37.7575 9.43779C37.7575 9.08881 37.8654 8.75534 38.058 8.47615C38.2584 8.19697 38.5281 7.97983 38.8594 7.8635C40.9399 8.53044 43.1515 8.87942 45.4632 8.87942C47.7748 8.87942 49.9786 8.53044 52.0592 7.8635C52.3982 7.97983 52.6679 8.18922 52.8683 8.4684C53.0609 8.75534 53.1688 9.08881 53.1688 9.43779C53.1688 9.77901 53.0532 10.1202 52.8528 10.3994C52.6525 10.6786 52.3674 10.888 52.0438 10.9966Z" fill="white"/>
<path d="M23.3233 15.1707C22.7614 15.4737 22.2598 15.9028 21.8183 16.4582V8.14267H17.5591V31.408H21.8183V19.3815C22.019 19.0483 22.2648 18.7857 22.5557 18.5939C22.8467 18.402 23.2029 18.3061 23.6243 18.3061C23.9353 18.3061 24.2062 18.3515 24.437 18.4424C24.6678 18.5333 24.8634 18.6848 25.024 18.8968C25.1845 19.1089 25.3049 19.3916 25.3852 19.745C25.4654 20.0985 25.5056 20.5377 25.5056 21.0628V31.408H29.7798V21.0931C29.7798 19.9318 29.6694 18.9473 29.4487 18.1395C29.2279 17.3317 28.9169 16.6753 28.5156 16.1704C28.1142 15.6655 27.6326 15.297 27.0708 15.0647C26.5089 14.8325 25.8918 14.7163 25.2196 14.7163C24.5273 14.7163 23.8952 14.8678 23.3233 15.1707Z" fill="white"/>
<path d="M66.1492 31.408H61.875V8.14267H66.1492V31.408Z" fill="white"/>
<path d="M73.6068 31.408H69.3325V15.0193H73.6068V31.408Z" fill="white"/>
<path d="M69.3024 9.86939C69.1921 10.142 69.1369 10.445 69.1369 10.7782C69.1369 11.1114 69.1921 11.4194 69.3024 11.7021C69.4128 11.9748 69.5683 12.2171 69.769 12.4292C69.9697 12.6311 70.2105 12.7877 70.4914 12.8987C70.7824 13.0098 71.1034 13.0653 71.4546 13.0653C71.8058 13.0653 72.1218 13.0098 72.4027 12.8987C72.6937 12.7877 72.9395 12.6311 73.1402 12.4292C73.3409 12.2171 73.4964 11.9748 73.6068 11.7021C73.7171 11.4194 73.7723 11.1114 73.7723 10.7782C73.7723 10.445 73.7171 10.142 73.6068 9.86939C73.4964 9.58666 73.3409 9.34431 73.1402 9.14235C72.9395 8.9404 72.6937 8.78388 72.4027 8.67281C72.1218 8.56173 71.8058 8.50619 71.4546 8.50619C71.1034 8.50619 70.7824 8.56173 70.4914 8.67281C70.2105 8.78388 69.9697 8.9404 69.769 9.14235C69.5683 9.34431 69.4128 9.58666 69.3024 9.86939Z" fill="white"/>
<path d="M80.4924 15.0193L80.6128 16.64C81.0844 16.0139 81.6362 15.5393 82.2683 15.2162C82.9004 14.8829 83.6078 14.7163 84.3904 14.7163C85.0225 14.7163 85.6044 14.8274 86.1362 15.0496C86.668 15.2616 87.1245 15.615 87.5058 16.1098C87.887 16.6046 88.183 17.2509 88.3937 18.0486C88.6044 18.8463 88.7098 19.8258 88.7098 20.9871V31.408H84.4355V20.9719C84.4355 20.4468 84.3954 20.0126 84.3151 19.6693C84.2349 19.326 84.1145 19.0533 83.9539 18.8514C83.8034 18.6494 83.6128 18.5081 83.382 18.4273C83.1513 18.3465 82.8804 18.3061 82.5693 18.3061C82.168 18.3061 81.8168 18.4121 81.5158 18.6242C81.2148 18.8362 80.964 19.1291 80.7633 19.5027V31.408H76.4891V15.0193H80.4924Z" fill="white"/>
<path fill-rule="evenodd" clip-rule="evenodd" d="M58.0895 29.651C58.9725 28.2777 59.4139 26.3035 59.4139 23.7286V22.6532C59.4139 19.9672 58.9725 17.9729 58.0895 16.6703C57.2166 15.3676 55.9023 14.7163 54.1464 14.7163C53.414 14.7163 52.7719 14.8729 52.22 15.1859C51.6782 15.4989 51.2117 15.9432 50.8204 16.5188L50.6699 15.0193H46.7267V37.709H50.9859V30.0902C51.3672 30.6052 51.8187 31.0041 52.3404 31.2868C52.8722 31.5695 53.4842 31.7109 54.1765 31.7109C55.9123 31.7109 57.2166 31.0243 58.0895 29.651ZM55.0494 20.669C55.1297 21.2143 55.1698 21.8757 55.1698 22.6532V23.7286C55.1698 25.2433 55.0043 26.3591 54.6732 27.076C54.3521 27.793 53.7702 28.1514 52.9274 28.1514C52.4458 28.1514 52.0444 28.0606 51.7234 27.8788C51.4123 27.6869 51.1665 27.4244 50.9859 27.0912V19.4118C51.1765 19.0584 51.4274 18.7857 51.7384 18.5939C52.0595 18.402 52.4458 18.3061 52.8973 18.3061C53.3187 18.3061 53.6698 18.3869 53.9508 18.5484C54.2417 18.71 54.4775 18.9675 54.6581 19.3209C54.8387 19.6642 54.9692 20.1136 55.0494 20.669Z" fill="white"/>
<path fill-rule="evenodd" clip-rule="evenodd" d="M40.0518 30.8324C40.112 31.0445 40.1822 31.2363 40.2625 31.408H44.5517V31.1505C44.4514 30.9384 44.3611 30.7163 44.2808 30.484C44.2106 30.2417 44.1504 29.9741 44.1002 29.6813C44.0501 29.3783 44.0099 29.0451 43.9798 28.6816C43.9598 28.308 43.9497 27.8838 43.9497 27.4093V20.1388C43.9497 19.1796 43.8093 18.3616 43.5283 17.6851C43.2474 16.9984 42.8561 16.438 42.3544 16.0038C41.8528 15.5595 41.2608 15.2364 40.5785 15.0344C39.8962 14.8224 39.1488 14.7163 38.3361 14.7163C37.413 14.7163 36.5852 14.8577 35.8528 15.1404C35.1204 15.4131 34.4933 15.7867 33.9715 16.2613C33.4498 16.7359 33.0485 17.2913 32.7675 17.9274C32.4966 18.5535 32.3612 19.225 32.3612 19.9419H36.6203C36.6203 19.3462 36.7458 18.8867 36.9966 18.5636C37.2575 18.2304 37.6638 18.0638 38.2157 18.0638C38.6973 18.0638 39.0635 18.2152 39.3143 18.5182C39.5651 18.8211 39.6906 19.3411 39.6906 20.0783V21.396H38.5317C37.4381 21.396 36.4849 21.5222 35.6722 21.7747C34.8695 22.0271 34.1973 22.3907 33.6555 22.8652C33.1237 23.3297 32.7224 23.9003 32.4515 24.5768C32.1906 25.2433 32.0602 25.9905 32.0602 26.8185C32.0602 27.5658 32.1806 28.2423 32.4214 28.8482C32.6722 29.444 33.0083 29.9539 33.4297 30.378C33.8612 30.8021 34.3628 31.1303 34.9347 31.3625C35.5167 31.5948 36.1387 31.7109 36.801 31.7109C37.5334 31.7109 38.1504 31.5594 38.6521 31.2565C39.1638 30.9536 39.5802 30.58 39.9013 30.1357C39.9514 30.378 40.0016 30.6103 40.0518 30.8324ZM38.9531 28.0606C38.622 28.2524 38.2207 28.3483 37.7491 28.3483C37.2976 28.3483 36.9464 28.1969 36.6956 27.8939C36.4548 27.5809 36.3344 27.1265 36.3344 26.5307C36.3344 26.1773 36.3796 25.8441 36.4698 25.5311C36.5702 25.218 36.7157 24.9454 36.9063 24.7131C37.107 24.4809 37.3528 24.2991 37.6438 24.1679C37.9347 24.0366 38.2809 23.971 38.6822 23.971H39.6906V27.379C39.53 27.6415 39.2842 27.8687 38.9531 28.0606Z" fill="white"/>
<path d="M15.4594 24.0618C15.349 26.5762 14.6467 28.4796 13.3524 29.7721C12.0581 31.0647 10.232 31.7109 7.87414 31.7109C6.6601 31.7109 5.57649 31.509 4.62332 31.105C3.67015 30.7011 2.86748 30.1003 2.21532 29.3026C1.56315 28.5049 1.06148 27.5203 0.71031 26.349C0.369176 25.1675 0.198608 23.8094 0.198608 22.2745V18.5182C0.198608 16.9833 0.374192 15.6251 0.72536 14.4437C1.08656 13.2623 1.60328 12.2727 2.27552 11.4749C2.94775 10.6772 3.76045 10.0764 4.71362 9.67249C5.66679 9.25848 6.74037 9.05147 7.93434 9.05147C10.3223 9.05147 12.1333 9.72298 13.3674 11.066C14.6115 12.409 15.3189 14.3377 15.4895 16.852H11.0497C11.0296 16.0644 10.9594 15.408 10.839 14.8829C10.7286 14.3478 10.553 13.9237 10.3122 13.6106C10.0714 13.2976 9.75539 13.0754 9.36409 12.9442C8.98282 12.8129 8.50624 12.7473 7.93434 12.7473C7.34237 12.7473 6.83568 12.8482 6.41428 13.0502C6.00291 13.2522 5.66679 13.5803 5.40593 14.0347C5.14506 14.479 4.94941 15.0698 4.81897 15.8069C4.69857 16.5339 4.63837 17.4276 4.63837 18.4879V22.2745C4.63837 23.3045 4.68854 24.183 4.78888 24.9101C4.88921 25.6371 5.06479 26.2329 5.31563 26.6974C5.56646 27.1518 5.89756 27.485 6.30893 27.697C6.7203 27.9091 7.24203 28.0151 7.87414 28.0151C8.41594 28.0151 8.87747 27.9596 9.25874 27.8485C9.65004 27.7273 9.97111 27.5203 10.2219 27.2275C10.4728 26.9347 10.6634 26.5307 10.7938 26.0158C10.9243 25.5008 11.0045 24.8495 11.0346 24.0618H15.4594Z" fill="white"/>
</g>
<defs>
<clipPath id="clip0_127_838">
<rect width="89" height="38" fill="white"/>
</clipPath>
</defs>
</svg>
