<svg width="20" height="20" viewBox="0 0 20 20" fill="none" xmlns="http://www.w3.org/2000/svg">
<path d="M14.8881 10.0862C14.9019 9.94892 14.9087 9.81164 14.9087 9.67435C14.9087 7.43197 13.9256 5 12.9425 5C11.9594 5 10.9763 5.93487 10 5.93487C9.01688 5.93487 8.03375 5 7.05063 5C6.0675 5 5.09125 7.38621 5.09125 9.67435C5.09125 9.81164 5.09125 9.94892 5.105 10.0862C6.71375 10.4327 8.35 10.6092 10 10.6027C11.6844 10.6027 13.3206 10.4262 14.8881 10.0862ZM4.12188 14.1787C7.9375 15.2705 12.035 15.277 15.8713 14.1787C16.16 14.0872 16.4144 13.9107 16.5931 13.6753C16.7719 13.44 16.875 13.1523 16.875 12.8647C16.875 12.5705 16.7788 12.2894 16.6069 12.0475C16.4281 11.8121 16.1875 11.6356 15.885 11.5375C14.0287 12.0998 12.0625 12.394 10 12.394C7.9375 12.394 5.96438 12.0998 4.10813 11.5375C3.8125 11.6356 3.57188 11.8187 3.39313 12.054C3.22125 12.2894 3.125 12.5705 3.125 12.8647C3.125 13.4792 3.54438 13.9957 4.12188 14.1787Z" fill="#ADB5BD"/>
</svg>
