<svg width="current" height="current" viewBox="0 0 123 66" fill="none" xmlns="http://www.w3.org/2000/svg">
<path d="M59.2222 66H45.5556V61.4483H11.5L0 47.7931H59.2222V66Z" fill="black"/>
<path d="M123 66H109.333V61.4483H61.5V47.7931H123V66Z" fill="black"/>
<path d="M59.2222 13.6552H13.6667V15.931H59.2222V29.5862H36.4444V31.8621H59.2222V45.5172H0V31.8621H22.7778V29.5862H0V0H59.2222V13.6552Z" fill="black"/>
<path fill-rule="evenodd" clip-rule="evenodd" d="M75.1667 11.3793H77.4445V0H91.1111V45.5172H61.5V0H75.1667V11.3793ZM75.1667 31.8621H77.4445V25.0345H75.1667V31.8621Z" fill="black"/>
<path d="M107.056 15.931H109.333V0L123 15.931L123 45.5172H109.333V29.5862H107.056V45.5172H93.3889V0H107.056V15.931Z" fill="black"/>
</svg>
