<svg width="16" height="16" viewBox="0 0 24 24" fill="#868e96" xmlns="http://www.w3.org/2000/svg">
<path fill-rule="evenodd" clip-rule="evenodd" d="M4 9C4 7.34315 5.34315 6 7 6C8.65685 6 10 7.34315 10 9C10 10.6569 8.65685 12 7 12C5.34315 12 4 10.6569 4 9ZM7 8C6.44772 8 6 8.44772 6 9C6 9.55228 6.44772 10 7 10C7.55228 10 8 9.55228 8 9C8 8.44772 7.55228 8 7 8Z" fill="#868e96"/>
<path fill-rule="evenodd" clip-rule="evenodd" d="M1 6C1 4.34315 2.34315 3 4 3H20C21.6569 3 23 4.34315 23 6V18C23 19.6569 21.6569 21 20 21H4C2.34315 21 1 19.6569 1 18V6ZM4 5C3.44772 5 3 5.44772 3 6V18C3 18.5523 3.44772 19 4 19H5.57069L13.3617 10.7989C14.5236 9.57585 16.4652 9.55097 17.658 10.7438L21 14.0858V6C21 5.44772 20.5523 5 20 5H4ZM21 16.9142L16.2438 12.158C15.8462 11.7604 15.199 11.7687 14.8117 12.1764L8.32931 19H20C20.5523 19 21 18.5523 21 18V16.9142Z" fill="#868e96"/>
</svg>
