<svg width="24" height="24" viewBox="0 0 24 24" fill="none" xmlns="http://www.w3.org/2000/svg">
<path d="M8 17C8 16.4477 8.44772 16 9 16H15C15.5523 16 16 16.4477 16 17C16 17.5523 15.5523 18 15 18H9C8.44772 18 8 17.5523 8 17Z" fill="#212529"/>
<path fill-rule="evenodd" clip-rule="evenodd" d="M10 6C8.89543 6 8 6.89543 8 8V12C8 13.1046 8.89543 14 10 14H14C15.1046 14 16 13.1046 16 12V8C16 6.89543 15.1046 6 14 6H10ZM10 8H14V12H10V8Z" fill="#212529"/>
<path fill-rule="evenodd" clip-rule="evenodd" d="M8 2C5.79086 2 4 3.79086 4 6V18C4 20.2091 5.79086 22 8 22H16C18.2091 22 20 20.2091 20 18V6C20 3.79086 18.2091 2 16 2H8ZM16 4H8C6.89543 4 6 4.89543 6 6V18C6 19.1046 6.89543 20 8 20H16C17.1046 20 18 19.1046 18 18V6C18 4.89543 17.1046 4 16 4Z" fill="#212529"/>
</svg>
