<svg width="24" height="24" viewBox="0 0 24 24" fill="none" xmlns="http://www.w3.org/2000/svg">
<path fill-rule="evenodd" clip-rule="evenodd" d="M12 23C18.0751 23 23 18.0751 23 12C23 5.92487 18.0751 1 12 1C5.92487 1 1 5.92487 1 12C1 18.0751 5.92487 23 12 23ZM12.0001 8C11.2107 8 10.5 8.71167 10.5 9.625C10.5 10.1773 10.0523 10.625 9.5 10.625C8.94772 10.625 8.5 10.1773 8.5 9.625C8.5 7.73833 9.97936 6 12.0001 6C13.8585 6 15.6198 7.64421 15.4937 9.6866C15.4444 10.4857 15.1184 11.1129 14.7497 11.6108C14.49 11.9614 14.1624 12.3021 13.8971 12.578L13.8963 12.5788C13.8144 12.664 13.7385 12.7429 13.6724 12.8141L13.6587 12.8287L13.6468 12.8406L13.6455 12.8419L13.6282 12.8601C13.6111 12.8783 13.5839 12.9079 13.5501 12.9471C13.4814 13.0266 13.3901 13.1402 13.3003 13.274C13.0985 13.5745 13.0001 13.8359 13.0001 14C13.0001 14.5523 12.5524 15 12.0001 15C11.4478 15 11.0001 14.5523 11.0001 14C11.0001 13.2307 11.3715 12.5588 11.6397 12.1593C11.7848 11.9432 11.9284 11.765 12.036 11.6404C12.0902 11.5776 12.1365 11.5269 12.1707 11.4904C12.1879 11.4722 12.2022 11.4573 12.2131 11.4462L12.2173 11.4419C12.3312 11.3196 12.4361 11.2104 12.5337 11.1088C12.7709 10.8619 12.9655 10.6594 13.1424 10.4205C13.3657 10.1189 13.4795 9.85576 13.4975 9.5634C13.5474 8.75493 12.7904 8 12.0001 8ZM12 16C12.5523 16 13 16.4477 13 17V17.5C13 18.0523 12.5523 18.5 12 18.5C11.4477 18.5 11 18.0523 11 17.5V17C11 16.4477 11.4477 16 12 16Z" fill="#212529"/>
</svg>
