<svg width="24" height="24" viewBox="0 0 24 24" fill="none" xmlns="http://www.w3.org/2000/svg">
<path d="M8.5 8.5C8.5 6.63362 10.0419 5 12.0002 5C13.901 5 15.6094 6.65865 15.4943 8.43533C15.4508 9.1051 15.1714 9.68112 14.7135 10.2701C14.3644 10.7189 13.9664 11.1135 13.5229 11.5532C13.3509 11.7236 13.1721 11.9009 12.9867 12.0907L12.9737 12.1032C12.9573 12.1193 12.9348 12.1416 12.9072 12.1695C12.8521 12.2253 12.7762 12.3044 12.6864 12.4035C12.5078 12.6006 12.269 12.8827 12.0286 13.2239C11.5728 13.8706 11.0002 14.8828 11.0002 16C11.0002 16.5523 11.4479 17 12.0002 17C12.5525 17 13.0002 16.5523 13.0002 16C13.0002 15.5172 13.2734 14.9294 13.6633 14.3761C13.8458 14.1173 14.0299 13.8994 14.1684 13.7465C14.2372 13.6706 14.2934 13.6122 14.3309 13.5742C14.3495 13.5553 14.3634 13.5416 14.3717 13.5335L14.3792 13.5262L14.38 13.5254L14.3935 13.5127L14.4075 13.4984C14.5439 13.3586 14.6931 13.2107 14.8493 13.0559C15.3217 12.5878 15.8574 12.057 16.2923 11.4978C16.9 10.7163 17.4122 9.76601 17.4901 8.56467C17.6916 5.45417 14.867 3 12.0002 3C8.90033 3 6.5 5.56638 6.5 8.5C6.5 9.05228 6.94772 9.5 7.5 9.5C8.05228 9.5 8.5 9.05228 8.5 8.5Z" fill="#212529"/>
<path d="M13 20C13 19.4477 12.5523 19 12 19C11.4477 19 11 19.4477 11 20V20.5C11 21.0523 11.4477 21.5 12 21.5C12.5523 21.5 13 21.0523 13 20.5V20Z" fill="#212529"/>
</svg>
