<svg width="current" height="current" viewBox="0 0 12 12" fill="none" xmlns="http://www.w3.org/2000/svg">
<g clip-path="url(#clip0_2834_10823)">
<path d="M1.625 6C1.625 3.58375 3.58375 1.625 6 1.625C7.37204 1.625 8.59639 2.25614 9.39912 3.24538L9.49712 3.375H8V4.125H10.875V1.25H10.125V2.96186L9.98985 2.7831L9.98596 2.77829C9.04701 1.61795 7.61013 0.875 6 0.875C3.16954 0.875 0.875 3.16954 0.875 6C0.875 8.83046 3.16954 11.125 6 11.125C8.63823 11.125 10.8104 9.13185 11.0937 6.56898C11.1144 6.38204 11.125 6.19218 11.125 6H10.375C10.375 6.1646 10.3659 6.32694 10.3483 6.48657C10.1065 8.67365 8.25168 10.375 6 10.375C3.58375 10.375 1.625 8.41625 1.625 6Z" fill="currentColor"/>
</g>
<defs>
<clipPath id="clip0_2834_10823">
<rect width="current" height="current" fill="currentColor"/>
</clipPath>
</defs>
</svg>
