<svg width="current" height="current" viewBox="0 0 24 24" fill="none" xmlns="http://www.w3.org/2000/svg">
<path d="M3.5 12C3.5 7.30558 7.30558 3.5 12 3.5C14.5964 3.5 16.9204 4.663 18.481 6.5H16C15.4477 6.5 15 6.94772 15 7.5C15 8.05228 15.4477 8.5 16 8.5H22V2.5C22 1.94772 21.5523 1.5 21 1.5C20.4477 1.5 20 1.94772 20 2.5V5.19898C18.0755 2.93728 15.2052 1.5 12 1.5C6.20101 1.5 1.5 6.20101 1.5 12C1.5 17.799 6.20101 22.5 12 22.5C17.4053 22.5 21.8555 18.4164 22.436 13.1654C22.4966 12.6165 22.1008 12.1223 21.5519 12.0616C21.003 12.0009 20.5088 12.3967 20.4481 12.9457C19.9784 17.1946 16.3745 20.5 12 20.5C7.30558 20.5 3.5 16.6944 3.5 12Z" fill="currentColor"/>
</svg>
