<svg width="currrent" height="currrent" viewBox="0 0 24 24" fill="none" xmlns="http://www.w3.org/2000/svg">
<path d="M20.5 12C20.5 7.30558 16.6944 3.5 12 3.5C9.40363 3.5 7.07959 4.663 5.519 6.5H8C8.55229 6.5 9 6.94772 9 7.5C9 8.05228 8.55229 8.5 8 8.5H2V2.5C2 1.94772 2.44772 1.5 3 1.5C3.55229 1.5 4 1.94772 4 2.5V5.19897C5.92451 2.93728 8.79476 1.5 12 1.5C17.799 1.5 22.5 6.20101 22.5 12C22.5 17.799 17.799 22.5 12 22.5C6.59468 22.5 2.1445 18.4164 1.56403 13.1654C1.50335 12.6165 1.89916 12.1223 2.44811 12.0616C2.99705 12.0009 3.49124 12.3967 3.55193 12.9457C4.02162 17.1946 7.62548 20.5 12 20.5C16.6944 20.5 20.5 16.6944 20.5 12Z" fill="currentColor"/>
</svg>
