<svg width="12" height="12" viewBox="0 0 12 12" fill="none" xmlns="http://www.w3.org/2000/svg">
<g clip-path="url(#clip0_3921_16200)">
<path d="M10.25 6C10.25 3.65279 8.3472 1.75 5.99998 1.75C4.7018 1.75 3.53978 2.3315 2.75949 3.25H3.99999C4.27613 3.25 4.49999 3.47386 4.49999 3.75C4.49999 4.02614 4.27613 4.25 3.99999 4.25H0.999985V1.25C0.999985 0.973858 1.22384 0.75 1.49999 0.75C1.77613 0.75 1.99999 0.973858 1.99999 1.25V2.59949C2.96224 1.46864 4.39736 0.75 5.99998 0.75C8.89948 0.75 11.25 3.1005 11.25 6C11.25 8.8995 8.89948 11.25 5.99998 11.25C3.29733 11.25 1.07224 9.20822 0.782002 6.58272C0.751661 6.30825 0.949567 6.06115 1.22404 6.03081C1.49851 6.00046 1.74561 6.19837 1.77595 6.47284C2.01079 8.59729 3.81273 10.25 5.99998 10.25C8.3472 10.25 10.25 8.34721 10.25 6Z" />
</g>
<defs>
<clipPath id="clip0_3921_16200">
<rect width="12" height="12" fill="white"/>
</clipPath>
</defs>
</svg>
