<svg width="20" height="20" viewBox="0 0 20 20" fill="none" xmlns="http://www.w3.org/2000/svg">
<g clip-path="url(#clip0_2927_16418)">
<path fill-rule="evenodd" clip-rule="evenodd" d="M9.99967 19.1666C15.0623 19.1666 19.1663 15.0625 19.1663 9.99992C19.1663 4.93731 15.0623 0.833252 9.99967 0.833252C4.93706 0.833252 0.833008 4.93731 0.833008 9.99992C0.833008 15.0625 4.93706 19.1666 9.99967 19.1666Z" fill="#363644"/>
<path fill-rule="evenodd" clip-rule="evenodd" d="M6.66693 6.66669C6.99237 6.34125 7.52 6.34125 7.84544 6.66669L10.0003 8.82154L12.1551 6.66672C12.4805 6.34129 13.0082 6.34129 13.3336 6.66672C13.659 6.99216 13.659 7.5198 13.3336 7.84523L11.1788 10.0001L13.3336 12.1549C13.6591 12.4803 13.6591 13.008 13.3336 13.3334C13.0082 13.6589 12.4805 13.6589 12.1551 13.3334L10.0003 11.1786L7.84544 13.3335C7.52 13.6589 6.99237 13.6589 6.66693 13.3335C6.34149 13.008 6.34149 12.4804 6.66693 12.1549L8.82175 10.0001L6.66693 7.8452C6.34149 7.51976 6.34149 6.99212 6.66693 6.66669Z" fill="white"/>
</g>
<defs>
<clipPath id="clip0_2927_16418">
<rect width="20" height="20" fill="white"/>
</clipPath>
</defs>
</svg>
