<svg width="24" height="24" viewBox="0 0 24 24" fill="none" xmlns="http://www.w3.org/2000/svg">
<path d="M9.41421 8.00005C9.02369 7.60952 8.39052 7.60952 8 8.00005C7.60948 8.39057 7.60948 9.02374 8 9.41426L10.5858 12L8 14.5858C7.60948 14.9764 7.60948 15.6095 8 16C8.39052 16.3906 9.02369 16.3906 9.41421 16L12 13.4143L14.5858 16C14.9763 16.3906 15.6095 16.3906 16 16C16.3905 15.6095 16.3905 14.9764 16 14.5858L13.4142 12L16 9.41426C16.3905 9.02374 16.3905 8.39057 16 8.00005C15.6095 7.60952 14.9763 7.60952 14.5858 8.00005L12 10.5858L9.41421 8.00005Z" fill="#212529"/>
<path fill-rule="evenodd" clip-rule="evenodd" d="M23 12C23 18.0751 18.0751 23 12 23C5.92487 23 1 18.0751 1 12C1 5.92487 5.92487 1 12 1C18.0751 1 23 5.92487 23 12ZM21 12C21 16.9706 16.9706 21 12 21C7.02944 21 3 16.9706 3 12C3 7.02944 7.02944 3 12 3C16.9706 3 21 7.02944 21 12Z" fill="#212529"/>
</svg>
