<svg width="16" height="16" viewBox="0 0 16 16" fill="none" xmlns="http://www.w3.org/2000/svg">
<g clip-path="url(#clip0_2927_15727)">
<path fill-rule="evenodd" clip-rule="evenodd" d="M8.00033 15.3334C12.0504 15.3334 15.3337 12.0502 15.3337 8.00008C15.3337 3.94999 12.0504 0.666748 8.00033 0.666748C3.95024 0.666748 0.666992 3.94999 0.666992 8.00008C0.666992 12.0502 3.95024 15.3334 8.00033 15.3334Z" fill="#ADB5BD"/>
<path fill-rule="evenodd" clip-rule="evenodd" d="M5.33296 5.3332C5.59331 5.07285 6.01542 5.07285 6.27577 5.3332L7.99962 7.05709L9.72348 5.33323C9.98383 5.07288 10.4059 5.07288 10.6663 5.33323C10.9266 5.59358 10.9266 6.01569 10.6663 6.27604L8.94243 7.9999L10.6663 9.72378C10.9267 9.98413 10.9267 10.4062 10.6663 10.6666C10.406 10.9269 9.98385 10.9269 9.7235 10.6666L7.99962 8.94271L6.27577 10.6666C6.01542 10.927 5.59331 10.927 5.33296 10.6666C5.07261 10.4063 5.07261 9.98416 5.33296 9.72381L7.05681 7.9999L5.33296 6.27601C5.07261 6.01566 5.07261 5.59355 5.33296 5.3332Z" fill="white"/>
</g>
<defs>
<clipPath id="clip0_2927_15727">
<rect width="16" height="16" fill="white"/>
</clipPath>
</defs>
</svg>
