<svg width="24" height="24" viewBox="0 0 24 24" fill="none" xmlns="http://www.w3.org/2000/svg">
<path fill-rule="evenodd" clip-rule="evenodd" d="M12 23C18.0751 23 23 18.0751 23 12C23 5.92487 18.0751 1 12 1C5.92487 1 1 5.92487 1 12C1 18.0751 5.92487 23 12 23ZM9.41421 8.00005C9.02369 7.60952 8.39052 7.60952 8 8.00005C7.60948 8.39057 7.60948 9.02374 8 9.41426L10.5858 12L8 14.5858C7.60948 14.9764 7.60948 15.6095 8 16C8.39052 16.3906 9.02369 16.3906 9.41421 16L12 13.4143L14.5858 16C14.9763 16.3906 15.6095 16.3906 16 16C16.3905 15.6095 16.3905 14.9764 16 14.5858L13.4142 12L16 9.41426C16.3905 9.02374 16.3905 8.39057 16 8.00005C15.6095 7.60952 14.9763 7.60952 14.5858 8.00005L12 10.5858L9.41421 8.00005Z" fill="#212529"/>
</svg>
